<mxfile host="app.diagrams.net" modified="2024-05-07T14:54:55.505Z" agent="Mozilla/5.0 (X11; Linux x86_64) AppleWebKit/537.36 (KHTML, like Gecko) Chrome/123.0.0.0 Safari/537.36" etag="U3DfEJjrRy4okZAUbtp9" version="24.3.1" type="device">
  <diagram name="Page-1" id="NvhE_Qb75Aoejws6Ce-A">
    <mxGraphModel dx="2185" dy="857" grid="1" gridSize="10" guides="1" tooltips="1" connect="1" arrows="1" fold="1" page="1" pageScale="1" pageWidth="850" pageHeight="1100" math="0" shadow="0">
      <root>
        <mxCell id="0" />
        <mxCell id="1" parent="0" />
        <mxCell id="X3aFYsN9jhFLCXPKWDU9-2" value="" style="ellipse;whiteSpace=wrap;html=1;" parent="1" vertex="1">
          <mxGeometry x="90" y="300" width="130" height="95" as="geometry" />
        </mxCell>
        <mxCell id="X3aFYsN9jhFLCXPKWDU9-1" value="ClientGameOfRope&lt;div&gt;Referee&lt;/div&gt;" style="ellipse;whiteSpace=wrap;html=1;strokeColor=default;fillColor=#000000;fontColor=#FFFFFF;" parent="1" vertex="1">
          <mxGeometry x="95" y="307.5" width="120" height="80" as="geometry" />
        </mxCell>
        <mxCell id="X3aFYsN9jhFLCXPKWDU9-4" value="Referee" style="ellipse;whiteSpace=wrap;html=1;fontColor=#FFFFFF;fillColor=#1A1A1A;" parent="1" vertex="1">
          <mxGeometry x="200" y="110" width="120" height="80" as="geometry" />
        </mxCell>
        <mxCell id="X3aFYsN9jhFLCXPKWDU9-5" value="" style="endArrow=classic;html=1;rounded=0;entryX=0.286;entryY=1.017;entryDx=0;entryDy=0;entryPerimeter=0;exitX=1;exitY=0;exitDx=0;exitDy=0;" parent="1" source="X3aFYsN9jhFLCXPKWDU9-2" target="X3aFYsN9jhFLCXPKWDU9-4" edge="1">
          <mxGeometry width="50" height="50" relative="1" as="geometry">
            <mxPoint x="400" y="460" as="sourcePoint" />
            <mxPoint x="450" y="410" as="targetPoint" />
          </mxGeometry>
        </mxCell>
        <mxCell id="X3aFYsN9jhFLCXPKWDU9-6" value="refereeSiteStub" style="ellipse;whiteSpace=wrap;html=1;" parent="1" vertex="1">
          <mxGeometry x="380" y="180" width="120" height="80" as="geometry" />
        </mxCell>
        <mxCell id="X3aFYsN9jhFLCXPKWDU9-7" value="playgroundStub" style="ellipse;whiteSpace=wrap;html=1;" parent="1" vertex="1">
          <mxGeometry x="380" y="320" width="120" height="80" as="geometry" />
        </mxCell>
        <mxCell id="X3aFYsN9jhFLCXPKWDU9-8" value="contestantBenchStub" style="ellipse;whiteSpace=wrap;html=1;" parent="1" vertex="1">
          <mxGeometry x="380" y="470" width="120" height="80" as="geometry" />
        </mxCell>
        <mxCell id="X3aFYsN9jhFLCXPKWDU9-80" style="edgeStyle=orthogonalEdgeStyle;rounded=0;orthogonalLoop=1;jettySize=auto;html=1;exitX=0.5;exitY=1;exitDx=0;exitDy=0;" parent="1" source="X3aFYsN9jhFLCXPKWDU9-9" target="X3aFYsN9jhFLCXPKWDU9-10" edge="1">
          <mxGeometry relative="1" as="geometry" />
        </mxCell>
        <mxCell id="X3aFYsN9jhFLCXPKWDU9-9" value="com" style="ellipse;whiteSpace=wrap;html=1;" parent="1" vertex="1">
          <mxGeometry x="610" y="250" width="120" height="80" as="geometry" />
        </mxCell>
        <mxCell id="X3aFYsN9jhFLCXPKWDU9-10" value="inMessage&lt;div&gt;outMessage&lt;/div&gt;" style="ellipse;whiteSpace=wrap;html=1;" parent="1" vertex="1">
          <mxGeometry x="610" y="430" width="120" height="80" as="geometry" />
        </mxCell>
        <mxCell id="X3aFYsN9jhFLCXPKWDU9-11" value="" style="endArrow=classic;html=1;rounded=0;exitX=1;exitY=1;exitDx=0;exitDy=0;" parent="1" source="X3aFYsN9jhFLCXPKWDU9-4" target="X3aFYsN9jhFLCXPKWDU9-6" edge="1">
          <mxGeometry width="50" height="50" relative="1" as="geometry">
            <mxPoint x="400" y="460" as="sourcePoint" />
            <mxPoint x="450" y="410" as="targetPoint" />
          </mxGeometry>
        </mxCell>
        <mxCell id="X3aFYsN9jhFLCXPKWDU9-12" value="" style="endArrow=classic;html=1;rounded=0;exitX=1.028;exitY=0.414;exitDx=0;exitDy=0;exitPerimeter=0;entryX=0;entryY=0.5;entryDx=0;entryDy=0;" parent="1" source="X3aFYsN9jhFLCXPKWDU9-2" target="X3aFYsN9jhFLCXPKWDU9-6" edge="1">
          <mxGeometry width="50" height="50" relative="1" as="geometry">
            <mxPoint x="400" y="460" as="sourcePoint" />
            <mxPoint x="450" y="410" as="targetPoint" />
          </mxGeometry>
        </mxCell>
        <mxCell id="X3aFYsN9jhFLCXPKWDU9-13" value="" style="endArrow=classic;html=1;rounded=0;exitX=1;exitY=0.75;exitDx=0;exitDy=0;exitPerimeter=0;" parent="1" source="X3aFYsN9jhFLCXPKWDU9-1" target="X3aFYsN9jhFLCXPKWDU9-7" edge="1">
          <mxGeometry width="50" height="50" relative="1" as="geometry">
            <mxPoint x="400" y="460" as="sourcePoint" />
            <mxPoint x="450" y="410" as="targetPoint" />
          </mxGeometry>
        </mxCell>
        <mxCell id="X3aFYsN9jhFLCXPKWDU9-14" value="" style="endArrow=classic;html=1;rounded=0;exitX=1;exitY=1;exitDx=0;exitDy=0;entryX=0.078;entryY=0.179;entryDx=0;entryDy=0;entryPerimeter=0;" parent="1" source="X3aFYsN9jhFLCXPKWDU9-2" target="X3aFYsN9jhFLCXPKWDU9-8" edge="1">
          <mxGeometry width="50" height="50" relative="1" as="geometry">
            <mxPoint x="400" y="460" as="sourcePoint" />
            <mxPoint x="450" y="410" as="targetPoint" />
          </mxGeometry>
        </mxCell>
        <mxCell id="X3aFYsN9jhFLCXPKWDU9-15" value="" style="endArrow=classic;html=1;rounded=0;exitX=0.611;exitY=1.002;exitDx=0;exitDy=0;exitPerimeter=0;entryX=0.202;entryY=0.063;entryDx=0;entryDy=0;entryPerimeter=0;" parent="1" source="X3aFYsN9jhFLCXPKWDU9-4" target="X3aFYsN9jhFLCXPKWDU9-7" edge="1">
          <mxGeometry width="50" height="50" relative="1" as="geometry">
            <mxPoint x="400" y="460" as="sourcePoint" />
            <mxPoint x="450" y="410" as="targetPoint" />
          </mxGeometry>
        </mxCell>
        <mxCell id="X3aFYsN9jhFLCXPKWDU9-16" value="" style="endArrow=classic;html=1;rounded=0;exitX=0.439;exitY=0.993;exitDx=0;exitDy=0;exitPerimeter=0;entryX=0.25;entryY=0;entryDx=0;entryDy=0;entryPerimeter=0;" parent="1" source="X3aFYsN9jhFLCXPKWDU9-4" target="X3aFYsN9jhFLCXPKWDU9-8" edge="1">
          <mxGeometry width="50" height="50" relative="1" as="geometry">
            <mxPoint x="400" y="460" as="sourcePoint" />
            <mxPoint x="450" y="410" as="targetPoint" />
          </mxGeometry>
        </mxCell>
        <mxCell id="X3aFYsN9jhFLCXPKWDU9-17" value="" style="endArrow=classic;html=1;rounded=0;exitX=1;exitY=0.5;exitDx=0;exitDy=0;entryX=0;entryY=0.5;entryDx=0;entryDy=0;" parent="1" source="X3aFYsN9jhFLCXPKWDU9-6" target="X3aFYsN9jhFLCXPKWDU9-9" edge="1">
          <mxGeometry width="50" height="50" relative="1" as="geometry">
            <mxPoint x="400" y="460" as="sourcePoint" />
            <mxPoint x="450" y="410" as="targetPoint" />
          </mxGeometry>
        </mxCell>
        <mxCell id="X3aFYsN9jhFLCXPKWDU9-18" value="" style="endArrow=classic;html=1;rounded=0;exitX=1;exitY=0.5;exitDx=0;exitDy=0;entryX=0;entryY=0.625;entryDx=0;entryDy=0;entryPerimeter=0;" parent="1" source="X3aFYsN9jhFLCXPKWDU9-7" target="X3aFYsN9jhFLCXPKWDU9-9" edge="1">
          <mxGeometry width="50" height="50" relative="1" as="geometry">
            <mxPoint x="400" y="460" as="sourcePoint" />
            <mxPoint x="450" y="410" as="targetPoint" />
          </mxGeometry>
        </mxCell>
        <mxCell id="X3aFYsN9jhFLCXPKWDU9-19" value="" style="endArrow=classic;html=1;rounded=0;exitX=0.967;exitY=0.711;exitDx=0;exitDy=0;exitPerimeter=0;entryX=0.413;entryY=0.021;entryDx=0;entryDy=0;entryPerimeter=0;" parent="1" source="X3aFYsN9jhFLCXPKWDU9-6" target="X3aFYsN9jhFLCXPKWDU9-10" edge="1">
          <mxGeometry width="50" height="50" relative="1" as="geometry">
            <mxPoint x="400" y="460" as="sourcePoint" />
            <mxPoint x="450" y="410" as="targetPoint" />
          </mxGeometry>
        </mxCell>
        <mxCell id="X3aFYsN9jhFLCXPKWDU9-20" value="" style="endArrow=classic;html=1;rounded=0;exitX=0.979;exitY=0.668;exitDx=0;exitDy=0;exitPerimeter=0;" parent="1" source="X3aFYsN9jhFLCXPKWDU9-7" target="X3aFYsN9jhFLCXPKWDU9-10" edge="1">
          <mxGeometry width="50" height="50" relative="1" as="geometry">
            <mxPoint x="400" y="460" as="sourcePoint" />
            <mxPoint x="450" y="410" as="targetPoint" />
          </mxGeometry>
        </mxCell>
        <mxCell id="X3aFYsN9jhFLCXPKWDU9-21" value="" style="endArrow=classic;html=1;rounded=0;exitX=0.991;exitY=0.33;exitDx=0;exitDy=0;exitPerimeter=0;entryX=0;entryY=0.5;entryDx=0;entryDy=0;" parent="1" source="X3aFYsN9jhFLCXPKWDU9-8" target="X3aFYsN9jhFLCXPKWDU9-10" edge="1">
          <mxGeometry width="50" height="50" relative="1" as="geometry">
            <mxPoint x="400" y="460" as="sourcePoint" />
            <mxPoint x="450" y="410" as="targetPoint" />
          </mxGeometry>
        </mxCell>
        <mxCell id="X3aFYsN9jhFLCXPKWDU9-22" value="" style="endArrow=classic;html=1;rounded=0;exitX=1;exitY=0;exitDx=0;exitDy=0;entryX=0.431;entryY=0.991;entryDx=0;entryDy=0;entryPerimeter=0;" parent="1" source="X3aFYsN9jhFLCXPKWDU9-8" target="X3aFYsN9jhFLCXPKWDU9-9" edge="1">
          <mxGeometry width="50" height="50" relative="1" as="geometry">
            <mxPoint x="400" y="460" as="sourcePoint" />
            <mxPoint x="450" y="410" as="targetPoint" />
          </mxGeometry>
        </mxCell>
        <mxCell id="X3aFYsN9jhFLCXPKWDU9-24" value="&lt;h1 style=&quot;margin-top: 0px;&quot;&gt;Referee&lt;/h1&gt;" style="text;html=1;whiteSpace=wrap;overflow=hidden;rounded=0;" parent="1" vertex="1">
          <mxGeometry x="360" y="10" width="95" height="40" as="geometry" />
        </mxCell>
        <mxCell id="X3aFYsN9jhFLCXPKWDU9-25" value="&lt;h1 style=&quot;margin-top: 0px;&quot;&gt;Description&lt;/h1&gt;&lt;div&gt;&lt;ol&gt;&lt;li&gt;&lt;font style=&quot;font-size: 14px;&quot;&gt;instanciate, start, join&lt;/font&gt;&lt;/li&gt;&lt;li&gt;&lt;font size=&quot;3&quot;&gt;intanciate, shutdown&lt;/font&gt;&lt;/li&gt;&lt;li&gt;&lt;font size=&quot;3&quot;&gt;announceNewGame,waitforInformReferee&lt;/font&gt;&lt;/li&gt;&lt;li&gt;&lt;font size=&quot;3&quot;&gt;startTrial, waitForAmDone, assertTrialDecision, declareGameWinner&lt;/font&gt;&lt;/li&gt;&lt;li&gt;&lt;font size=&quot;3&quot;&gt;callTrial ,waitForSeatAtBench, declareMatchWinner&lt;/font&gt;&lt;/li&gt;&lt;li&gt;&lt;font size=&quot;3&quot;&gt;instanciate, open, close, writeObject, readObject&lt;/font&gt;&lt;/li&gt;&lt;li&gt;&lt;font size=&quot;3&quot;&gt;getMsgType,&amp;nbsp; getEntityState,&lt;/font&gt;&lt;/li&gt;&lt;li&gt;&lt;font size=&quot;3&quot;&gt;getMsgType,getEntityState, getRopePosition&lt;/font&gt;&lt;/li&gt;&lt;li&gt;&lt;font size=&quot;3&quot;&gt;getMsgType,getEntityState&lt;/font&gt;&lt;/li&gt;&lt;li&gt;&lt;font size=&quot;3&quot;&gt;instanciate&lt;/font&gt;&lt;/li&gt;&lt;/ol&gt;&lt;/div&gt;" style="text;html=1;whiteSpace=wrap;overflow=hidden;rounded=0;" parent="1" vertex="1">
          <mxGeometry x="52.5" y="590" width="710" height="250" as="geometry" />
        </mxCell>
        <mxCell id="X3aFYsN9jhFLCXPKWDU9-26" value="" style="ellipse;whiteSpace=wrap;html=1;" parent="1" vertex="1">
          <mxGeometry x="90" y="1410" width="130" height="95" as="geometry" />
        </mxCell>
        <mxCell id="X3aFYsN9jhFLCXPKWDU9-27" value="ClientGameOfRope&lt;div&gt;Coach&lt;/div&gt;" style="ellipse;whiteSpace=wrap;html=1;strokeColor=default;fillColor=#000000;fontColor=#FFFFFF;" parent="1" vertex="1">
          <mxGeometry x="95" y="1417.5" width="120" height="80" as="geometry" />
        </mxCell>
        <mxCell id="X3aFYsN9jhFLCXPKWDU9-28" value="Coach" style="ellipse;whiteSpace=wrap;html=1;fontColor=#FFFFFF;fillColor=#1A1A1A;" parent="1" vertex="1">
          <mxGeometry x="200" y="1220" width="120" height="80" as="geometry" />
        </mxCell>
        <mxCell id="X3aFYsN9jhFLCXPKWDU9-29" value="" style="endArrow=classic;html=1;rounded=0;entryX=0.267;entryY=1.002;entryDx=0;entryDy=0;entryPerimeter=0;exitX=1;exitY=0;exitDx=0;exitDy=0;" parent="1" source="X3aFYsN9jhFLCXPKWDU9-26" target="X3aFYsN9jhFLCXPKWDU9-28" edge="1">
          <mxGeometry width="50" height="50" relative="1" as="geometry">
            <mxPoint x="400" y="1570" as="sourcePoint" />
            <mxPoint x="450" y="1520" as="targetPoint" />
          </mxGeometry>
        </mxCell>
        <mxCell id="X3aFYsN9jhFLCXPKWDU9-30" value="refereeSiteStub" style="ellipse;whiteSpace=wrap;html=1;" parent="1" vertex="1">
          <mxGeometry x="380" y="1290" width="120" height="80" as="geometry" />
        </mxCell>
        <mxCell id="X3aFYsN9jhFLCXPKWDU9-31" value="playgroundStub" style="ellipse;whiteSpace=wrap;html=1;" parent="1" vertex="1">
          <mxGeometry x="380" y="1430" width="120" height="80" as="geometry" />
        </mxCell>
        <mxCell id="X3aFYsN9jhFLCXPKWDU9-32" value="contestantBenchStub" style="ellipse;whiteSpace=wrap;html=1;" parent="1" vertex="1">
          <mxGeometry x="380" y="1580" width="120" height="80" as="geometry" />
        </mxCell>
        <mxCell id="X3aFYsN9jhFLCXPKWDU9-81" style="edgeStyle=orthogonalEdgeStyle;rounded=0;orthogonalLoop=1;jettySize=auto;html=1;entryX=0.5;entryY=0;entryDx=0;entryDy=0;" parent="1" source="X3aFYsN9jhFLCXPKWDU9-33" target="X3aFYsN9jhFLCXPKWDU9-34" edge="1">
          <mxGeometry relative="1" as="geometry" />
        </mxCell>
        <mxCell id="X3aFYsN9jhFLCXPKWDU9-33" value="com" style="ellipse;whiteSpace=wrap;html=1;" parent="1" vertex="1">
          <mxGeometry x="610" y="1360" width="120" height="80" as="geometry" />
        </mxCell>
        <mxCell id="X3aFYsN9jhFLCXPKWDU9-34" value="inMessage&lt;div&gt;outMessage&lt;/div&gt;" style="ellipse;whiteSpace=wrap;html=1;" parent="1" vertex="1">
          <mxGeometry x="610" y="1540" width="120" height="80" as="geometry" />
        </mxCell>
        <mxCell id="X3aFYsN9jhFLCXPKWDU9-35" value="" style="endArrow=classic;html=1;rounded=0;exitX=1;exitY=1;exitDx=0;exitDy=0;" parent="1" source="X3aFYsN9jhFLCXPKWDU9-28" target="X3aFYsN9jhFLCXPKWDU9-30" edge="1">
          <mxGeometry width="50" height="50" relative="1" as="geometry">
            <mxPoint x="400" y="1570" as="sourcePoint" />
            <mxPoint x="450" y="1520" as="targetPoint" />
          </mxGeometry>
        </mxCell>
        <mxCell id="X3aFYsN9jhFLCXPKWDU9-36" value="" style="endArrow=classic;html=1;rounded=0;exitX=1.028;exitY=0.414;exitDx=0;exitDy=0;exitPerimeter=0;entryX=0;entryY=0.5;entryDx=0;entryDy=0;" parent="1" source="X3aFYsN9jhFLCXPKWDU9-26" target="X3aFYsN9jhFLCXPKWDU9-30" edge="1">
          <mxGeometry width="50" height="50" relative="1" as="geometry">
            <mxPoint x="400" y="1570" as="sourcePoint" />
            <mxPoint x="450" y="1520" as="targetPoint" />
          </mxGeometry>
        </mxCell>
        <mxCell id="X3aFYsN9jhFLCXPKWDU9-37" value="" style="endArrow=classic;html=1;rounded=0;exitX=1;exitY=0.75;exitDx=0;exitDy=0;exitPerimeter=0;" parent="1" source="X3aFYsN9jhFLCXPKWDU9-27" target="X3aFYsN9jhFLCXPKWDU9-31" edge="1">
          <mxGeometry width="50" height="50" relative="1" as="geometry">
            <mxPoint x="400" y="1570" as="sourcePoint" />
            <mxPoint x="450" y="1520" as="targetPoint" />
          </mxGeometry>
        </mxCell>
        <mxCell id="X3aFYsN9jhFLCXPKWDU9-38" value="" style="endArrow=classic;html=1;rounded=0;exitX=1;exitY=1;exitDx=0;exitDy=0;entryX=0.078;entryY=0.179;entryDx=0;entryDy=0;entryPerimeter=0;" parent="1" source="X3aFYsN9jhFLCXPKWDU9-26" target="X3aFYsN9jhFLCXPKWDU9-32" edge="1">
          <mxGeometry width="50" height="50" relative="1" as="geometry">
            <mxPoint x="400" y="1570" as="sourcePoint" />
            <mxPoint x="450" y="1520" as="targetPoint" />
          </mxGeometry>
        </mxCell>
        <mxCell id="X3aFYsN9jhFLCXPKWDU9-39" value="" style="endArrow=classic;html=1;rounded=0;exitX=0.611;exitY=1.002;exitDx=0;exitDy=0;exitPerimeter=0;entryX=0.202;entryY=0.063;entryDx=0;entryDy=0;entryPerimeter=0;" parent="1" source="X3aFYsN9jhFLCXPKWDU9-28" target="X3aFYsN9jhFLCXPKWDU9-31" edge="1">
          <mxGeometry width="50" height="50" relative="1" as="geometry">
            <mxPoint x="400" y="1570" as="sourcePoint" />
            <mxPoint x="450" y="1520" as="targetPoint" />
          </mxGeometry>
        </mxCell>
        <mxCell id="X3aFYsN9jhFLCXPKWDU9-40" value="" style="endArrow=classic;html=1;rounded=0;exitX=0.439;exitY=0.993;exitDx=0;exitDy=0;exitPerimeter=0;entryX=0.25;entryY=0;entryDx=0;entryDy=0;entryPerimeter=0;" parent="1" source="X3aFYsN9jhFLCXPKWDU9-28" target="X3aFYsN9jhFLCXPKWDU9-32" edge="1">
          <mxGeometry width="50" height="50" relative="1" as="geometry">
            <mxPoint x="400" y="1570" as="sourcePoint" />
            <mxPoint x="450" y="1520" as="targetPoint" />
          </mxGeometry>
        </mxCell>
        <mxCell id="X3aFYsN9jhFLCXPKWDU9-41" value="" style="endArrow=classic;html=1;rounded=0;exitX=1;exitY=0.5;exitDx=0;exitDy=0;entryX=0;entryY=0.5;entryDx=0;entryDy=0;" parent="1" source="X3aFYsN9jhFLCXPKWDU9-30" target="X3aFYsN9jhFLCXPKWDU9-33" edge="1">
          <mxGeometry width="50" height="50" relative="1" as="geometry">
            <mxPoint x="400" y="1570" as="sourcePoint" />
            <mxPoint x="450" y="1520" as="targetPoint" />
          </mxGeometry>
        </mxCell>
        <mxCell id="X3aFYsN9jhFLCXPKWDU9-42" value="" style="endArrow=classic;html=1;rounded=0;exitX=1;exitY=0.5;exitDx=0;exitDy=0;entryX=0;entryY=0.625;entryDx=0;entryDy=0;entryPerimeter=0;" parent="1" source="X3aFYsN9jhFLCXPKWDU9-31" target="X3aFYsN9jhFLCXPKWDU9-33" edge="1">
          <mxGeometry width="50" height="50" relative="1" as="geometry">
            <mxPoint x="400" y="1570" as="sourcePoint" />
            <mxPoint x="450" y="1520" as="targetPoint" />
          </mxGeometry>
        </mxCell>
        <mxCell id="X3aFYsN9jhFLCXPKWDU9-43" value="" style="endArrow=classic;html=1;rounded=0;exitX=0.967;exitY=0.711;exitDx=0;exitDy=0;exitPerimeter=0;entryX=0.413;entryY=0.021;entryDx=0;entryDy=0;entryPerimeter=0;" parent="1" source="X3aFYsN9jhFLCXPKWDU9-30" target="X3aFYsN9jhFLCXPKWDU9-34" edge="1">
          <mxGeometry width="50" height="50" relative="1" as="geometry">
            <mxPoint x="400" y="1570" as="sourcePoint" />
            <mxPoint x="450" y="1520" as="targetPoint" />
          </mxGeometry>
        </mxCell>
        <mxCell id="X3aFYsN9jhFLCXPKWDU9-44" value="" style="endArrow=classic;html=1;rounded=0;exitX=0.979;exitY=0.668;exitDx=0;exitDy=0;exitPerimeter=0;" parent="1" source="X3aFYsN9jhFLCXPKWDU9-31" target="X3aFYsN9jhFLCXPKWDU9-34" edge="1">
          <mxGeometry width="50" height="50" relative="1" as="geometry">
            <mxPoint x="400" y="1570" as="sourcePoint" />
            <mxPoint x="450" y="1520" as="targetPoint" />
          </mxGeometry>
        </mxCell>
        <mxCell id="X3aFYsN9jhFLCXPKWDU9-45" value="" style="endArrow=classic;html=1;rounded=0;exitX=0.991;exitY=0.33;exitDx=0;exitDy=0;exitPerimeter=0;entryX=0;entryY=0.5;entryDx=0;entryDy=0;" parent="1" source="X3aFYsN9jhFLCXPKWDU9-32" target="X3aFYsN9jhFLCXPKWDU9-34" edge="1">
          <mxGeometry width="50" height="50" relative="1" as="geometry">
            <mxPoint x="400" y="1570" as="sourcePoint" />
            <mxPoint x="450" y="1520" as="targetPoint" />
          </mxGeometry>
        </mxCell>
        <mxCell id="X3aFYsN9jhFLCXPKWDU9-46" value="" style="endArrow=classic;html=1;rounded=0;exitX=1;exitY=0;exitDx=0;exitDy=0;entryX=0.431;entryY=0.991;entryDx=0;entryDy=0;entryPerimeter=0;" parent="1" source="X3aFYsN9jhFLCXPKWDU9-32" target="X3aFYsN9jhFLCXPKWDU9-33" edge="1">
          <mxGeometry width="50" height="50" relative="1" as="geometry">
            <mxPoint x="400" y="1570" as="sourcePoint" />
            <mxPoint x="450" y="1520" as="targetPoint" />
          </mxGeometry>
        </mxCell>
        <mxCell id="X3aFYsN9jhFLCXPKWDU9-47" value="&lt;h1 style=&quot;margin-top: 0px;&quot;&gt;Coach&lt;/h1&gt;" style="text;html=1;whiteSpace=wrap;overflow=hidden;rounded=0;" parent="1" vertex="1">
          <mxGeometry x="360" y="1110" width="95" height="40" as="geometry" />
        </mxCell>
        <mxCell id="X3aFYsN9jhFLCXPKWDU9-49" value="&lt;h1 style=&quot;margin-top: 0px;&quot;&gt;Description&lt;/h1&gt;&lt;div&gt;&lt;ol&gt;&lt;li&gt;&lt;font style=&quot;font-size: 14px;&quot;&gt;instanciate,start,join&lt;/font&gt;&lt;/li&gt;&lt;li&gt;&lt;font size=&quot;3&quot;&gt;intanciate,shutdown&lt;/font&gt;&lt;/li&gt;&lt;li&gt;&lt;font size=&quot;3&quot;&gt;informReferee&lt;/font&gt;&lt;/li&gt;&lt;li&gt;&lt;font size=&quot;3&quot;&gt;waitForFollowCoachAdvise,waitForAssertTrialDecision,&lt;/font&gt;&lt;/li&gt;&lt;li&gt;&lt;font size=&quot;3&quot;&gt;reviewNotes,waitForCallTrial,callContestants,&lt;/font&gt;&lt;/li&gt;&lt;li&gt;&lt;font size=&quot;3&quot;&gt;instanciate, open, close, writeObject, readObject&lt;/font&gt;&lt;/li&gt;&lt;li&gt;&lt;font size=&quot;3&quot;&gt;getMsgType,&lt;/font&gt;&lt;/li&gt;&lt;li&gt;&lt;font size=&quot;3&quot;&gt;getMSgType,getEntityState,getTeam,getID,getStrength&lt;/font&gt;&lt;/li&gt;&lt;li&gt;&lt;font size=&quot;3&quot;&gt;getMSgType,getEntityState,getTeam,getID,getStrength&lt;/font&gt;&lt;/li&gt;&lt;li&gt;&lt;font size=&quot;3&quot;&gt;instanciate&lt;/font&gt;&lt;/li&gt;&lt;/ol&gt;&lt;/div&gt;" style="text;html=1;whiteSpace=wrap;overflow=hidden;rounded=0;" parent="1" vertex="1">
          <mxGeometry x="40" y="1700" width="710" height="270" as="geometry" />
        </mxCell>
        <mxCell id="X3aFYsN9jhFLCXPKWDU9-50" value="" style="ellipse;whiteSpace=wrap;html=1;" parent="1" vertex="1">
          <mxGeometry x="87.5" y="2560" width="130" height="95" as="geometry" />
        </mxCell>
        <mxCell id="X3aFYsN9jhFLCXPKWDU9-51" value="ClientGameOfRope&lt;div&gt;Contestant&lt;/div&gt;" style="ellipse;whiteSpace=wrap;html=1;strokeColor=default;fillColor=#000000;fontColor=#FFFFFF;" parent="1" vertex="1">
          <mxGeometry x="92.5" y="2567.5" width="120" height="80" as="geometry" />
        </mxCell>
        <mxCell id="X3aFYsN9jhFLCXPKWDU9-52" value="Contestant" style="ellipse;whiteSpace=wrap;html=1;fontColor=#FFFFFF;fillColor=#1A1A1A;" parent="1" vertex="1">
          <mxGeometry x="197.5" y="2370" width="120" height="80" as="geometry" />
        </mxCell>
        <mxCell id="X3aFYsN9jhFLCXPKWDU9-53" value="" style="endArrow=classic;html=1;rounded=0;entryX=0.267;entryY=1.002;entryDx=0;entryDy=0;entryPerimeter=0;exitX=1;exitY=0;exitDx=0;exitDy=0;" parent="1" source="X3aFYsN9jhFLCXPKWDU9-50" target="X3aFYsN9jhFLCXPKWDU9-52" edge="1">
          <mxGeometry width="50" height="50" relative="1" as="geometry">
            <mxPoint x="397.5" y="2720" as="sourcePoint" />
            <mxPoint x="447.5" y="2670" as="targetPoint" />
          </mxGeometry>
        </mxCell>
        <mxCell id="X3aFYsN9jhFLCXPKWDU9-55" value="playgroundStub" style="ellipse;whiteSpace=wrap;html=1;" parent="1" vertex="1">
          <mxGeometry x="375" y="2500" width="120" height="80" as="geometry" />
        </mxCell>
        <mxCell id="X3aFYsN9jhFLCXPKWDU9-56" value="contestantBenchStub" style="ellipse;whiteSpace=wrap;html=1;" parent="1" vertex="1">
          <mxGeometry x="375" y="2640" width="120" height="80" as="geometry" />
        </mxCell>
        <mxCell id="X3aFYsN9jhFLCXPKWDU9-82" style="edgeStyle=orthogonalEdgeStyle;rounded=0;orthogonalLoop=1;jettySize=auto;html=1;" parent="1" source="X3aFYsN9jhFLCXPKWDU9-57" target="X3aFYsN9jhFLCXPKWDU9-58" edge="1">
          <mxGeometry relative="1" as="geometry" />
        </mxCell>
        <mxCell id="X3aFYsN9jhFLCXPKWDU9-57" value="com" style="ellipse;whiteSpace=wrap;html=1;" parent="1" vertex="1">
          <mxGeometry x="610" y="2477.5" width="120" height="80" as="geometry" />
        </mxCell>
        <mxCell id="X3aFYsN9jhFLCXPKWDU9-58" value="inMessage&lt;div&gt;outMessage&lt;/div&gt;" style="ellipse;whiteSpace=wrap;html=1;" parent="1" vertex="1">
          <mxGeometry x="610" y="2657.5" width="120" height="80" as="geometry" />
        </mxCell>
        <mxCell id="X3aFYsN9jhFLCXPKWDU9-61" value="" style="endArrow=classic;html=1;rounded=0;exitX=1;exitY=0.75;exitDx=0;exitDy=0;exitPerimeter=0;" parent="1" source="X3aFYsN9jhFLCXPKWDU9-51" target="X3aFYsN9jhFLCXPKWDU9-55" edge="1">
          <mxGeometry width="50" height="50" relative="1" as="geometry">
            <mxPoint x="397.5" y="2720" as="sourcePoint" />
            <mxPoint x="447.5" y="2670" as="targetPoint" />
          </mxGeometry>
        </mxCell>
        <mxCell id="X3aFYsN9jhFLCXPKWDU9-62" value="" style="endArrow=classic;html=1;rounded=0;exitX=1;exitY=1;exitDx=0;exitDy=0;entryX=0.078;entryY=0.179;entryDx=0;entryDy=0;entryPerimeter=0;" parent="1" source="X3aFYsN9jhFLCXPKWDU9-50" target="X3aFYsN9jhFLCXPKWDU9-56" edge="1">
          <mxGeometry width="50" height="50" relative="1" as="geometry">
            <mxPoint x="397.5" y="2720" as="sourcePoint" />
            <mxPoint x="447.5" y="2670" as="targetPoint" />
          </mxGeometry>
        </mxCell>
        <mxCell id="X3aFYsN9jhFLCXPKWDU9-63" value="" style="endArrow=classic;html=1;rounded=0;exitX=0.611;exitY=1.002;exitDx=0;exitDy=0;exitPerimeter=0;entryX=0.202;entryY=0.063;entryDx=0;entryDy=0;entryPerimeter=0;" parent="1" source="X3aFYsN9jhFLCXPKWDU9-52" target="X3aFYsN9jhFLCXPKWDU9-55" edge="1">
          <mxGeometry width="50" height="50" relative="1" as="geometry">
            <mxPoint x="397.5" y="2720" as="sourcePoint" />
            <mxPoint x="447.5" y="2670" as="targetPoint" />
          </mxGeometry>
        </mxCell>
        <mxCell id="X3aFYsN9jhFLCXPKWDU9-64" value="" style="endArrow=classic;html=1;rounded=0;exitX=0.439;exitY=0.993;exitDx=0;exitDy=0;exitPerimeter=0;entryX=0.25;entryY=0;entryDx=0;entryDy=0;entryPerimeter=0;" parent="1" source="X3aFYsN9jhFLCXPKWDU9-52" target="X3aFYsN9jhFLCXPKWDU9-56" edge="1">
          <mxGeometry width="50" height="50" relative="1" as="geometry">
            <mxPoint x="397.5" y="2720" as="sourcePoint" />
            <mxPoint x="447.5" y="2670" as="targetPoint" />
          </mxGeometry>
        </mxCell>
        <mxCell id="X3aFYsN9jhFLCXPKWDU9-66" value="" style="endArrow=classic;html=1;rounded=0;exitX=1;exitY=0.5;exitDx=0;exitDy=0;entryX=0;entryY=0.625;entryDx=0;entryDy=0;entryPerimeter=0;" parent="1" source="X3aFYsN9jhFLCXPKWDU9-55" target="X3aFYsN9jhFLCXPKWDU9-57" edge="1">
          <mxGeometry width="50" height="50" relative="1" as="geometry">
            <mxPoint x="397.5" y="2720" as="sourcePoint" />
            <mxPoint x="447.5" y="2670" as="targetPoint" />
          </mxGeometry>
        </mxCell>
        <mxCell id="X3aFYsN9jhFLCXPKWDU9-68" value="" style="endArrow=classic;html=1;rounded=0;exitX=0.979;exitY=0.668;exitDx=0;exitDy=0;exitPerimeter=0;" parent="1" source="X3aFYsN9jhFLCXPKWDU9-55" target="X3aFYsN9jhFLCXPKWDU9-58" edge="1">
          <mxGeometry width="50" height="50" relative="1" as="geometry">
            <mxPoint x="397.5" y="2720" as="sourcePoint" />
            <mxPoint x="447.5" y="2670" as="targetPoint" />
          </mxGeometry>
        </mxCell>
        <mxCell id="X3aFYsN9jhFLCXPKWDU9-69" value="" style="endArrow=classic;html=1;rounded=0;exitX=0.991;exitY=0.33;exitDx=0;exitDy=0;exitPerimeter=0;entryX=0;entryY=0.5;entryDx=0;entryDy=0;" parent="1" source="X3aFYsN9jhFLCXPKWDU9-56" target="X3aFYsN9jhFLCXPKWDU9-58" edge="1">
          <mxGeometry width="50" height="50" relative="1" as="geometry">
            <mxPoint x="397.5" y="2720" as="sourcePoint" />
            <mxPoint x="447.5" y="2670" as="targetPoint" />
          </mxGeometry>
        </mxCell>
        <mxCell id="X3aFYsN9jhFLCXPKWDU9-70" value="" style="endArrow=classic;html=1;rounded=0;exitX=1;exitY=0;exitDx=0;exitDy=0;entryX=0.431;entryY=0.991;entryDx=0;entryDy=0;entryPerimeter=0;" parent="1" source="X3aFYsN9jhFLCXPKWDU9-56" target="X3aFYsN9jhFLCXPKWDU9-57" edge="1">
          <mxGeometry width="50" height="50" relative="1" as="geometry">
            <mxPoint x="397.5" y="2720" as="sourcePoint" />
            <mxPoint x="447.5" y="2670" as="targetPoint" />
          </mxGeometry>
        </mxCell>
        <mxCell id="X3aFYsN9jhFLCXPKWDU9-71" value="&lt;h1 style=&quot;margin-top: 0px;&quot;&gt;Contestant&lt;/h1&gt;" style="text;html=1;whiteSpace=wrap;overflow=hidden;rounded=0;" parent="1" vertex="1">
          <mxGeometry x="370" y="2220" width="130" height="40" as="geometry" />
        </mxCell>
        <mxCell id="X3aFYsN9jhFLCXPKWDU9-72" value="&lt;h1 style=&quot;margin-top: 0px;&quot;&gt;Description&lt;/h1&gt;&lt;div&gt;&lt;ol&gt;&lt;li&gt;&lt;font style=&quot;font-size: 14px;&quot;&gt;instanciate,start,join&lt;/font&gt;&lt;/li&gt;&lt;li&gt;&lt;font size=&quot;3&quot;&gt;intanciate,shutdown&lt;/font&gt;&lt;/li&gt;&lt;li&gt;&lt;font size=&quot;3&quot;&gt;followCoachAdvice,waitForStartTrial,getReady,waitForAssertTrialDecision&lt;/font&gt;&lt;/li&gt;&lt;li&gt;&lt;font size=&quot;3&quot;&gt;waitForCallContestants,seatDown&lt;/font&gt;&lt;/li&gt;&lt;li&gt;&lt;font size=&quot;3&quot;&gt;instanciate, open, close, writeObject, readObject&lt;/font&gt;&lt;/li&gt;&lt;li&gt;&lt;font size=&quot;3&quot;&gt;getMSgType,getEntityState,getTeam,getID&lt;/font&gt;&lt;/li&gt;&lt;li&gt;&lt;font size=&quot;3&quot;&gt;getMSgType,getEntityState,getTeam,getID,getOrders&lt;/font&gt;&lt;/li&gt;&lt;li&gt;&lt;font size=&quot;3&quot;&gt;instanciate&lt;/font&gt;&lt;/li&gt;&lt;/ol&gt;&lt;/div&gt;" style="text;html=1;whiteSpace=wrap;overflow=hidden;rounded=0;" parent="1" vertex="1">
          <mxGeometry x="82.5" y="2870" width="710" height="260" as="geometry" />
        </mxCell>
        <mxCell id="X3aFYsN9jhFLCXPKWDU9-83" value="" style="ellipse;whiteSpace=wrap;html=1;" parent="1" vertex="1">
          <mxGeometry x="70" y="3605" width="130" height="95" as="geometry" />
        </mxCell>
        <mxCell id="X3aFYsN9jhFLCXPKWDU9-84" value="ServerGameOfRope&lt;div&gt;RefereeSite&lt;/div&gt;" style="ellipse;whiteSpace=wrap;html=1;strokeColor=default;fillColor=#000000;fontColor=#FFFFFF;" parent="1" vertex="1">
          <mxGeometry x="75" y="3612.5" width="120" height="80" as="geometry" />
        </mxCell>
        <mxCell id="X3aFYsN9jhFLCXPKWDU9-85" value="&lt;h1 style=&quot;forced-color-adjust: none; color: rgb(0, 0, 0); font-family: Helvetica; font-style: normal; font-variant-ligatures: normal; font-variant-caps: normal; letter-spacing: normal; orphans: 2; text-align: left; text-indent: 0px; text-transform: none; widows: 2; word-spacing: 0px; -webkit-text-stroke-width: 0px; white-space: normal; background-color: rgb(251, 251, 251); text-decoration-thickness: initial; text-decoration-style: initial; text-decoration-color: initial; margin-top: 0px;&quot;&gt;RefereeSite&lt;/h1&gt;" style="text;whiteSpace=wrap;html=1;" parent="1" vertex="1">
          <mxGeometry x="320" y="3310" width="150" height="70" as="geometry" />
        </mxCell>
        <mxCell id="X3aFYsN9jhFLCXPKWDU9-86" value="scon" style="ellipse;whiteSpace=wrap;html=1;" parent="1" vertex="1">
          <mxGeometry x="72.5" y="3390" width="120" height="80" as="geometry" />
        </mxCell>
        <mxCell id="X3aFYsN9jhFLCXPKWDU9-87" value="&lt;font color=&quot;#ffffff&quot;&gt;RefereeSiteClientProxy&lt;/font&gt;" style="ellipse;whiteSpace=wrap;html=1;fillColor=#000000;" parent="1" vertex="1">
          <mxGeometry x="320" y="3390" width="120" height="80" as="geometry" />
        </mxCell>
        <mxCell id="X3aFYsN9jhFLCXPKWDU9-88" value="refereeSiteInterface" style="ellipse;whiteSpace=wrap;html=1;" parent="1" vertex="1">
          <mxGeometry x="570" y="3390" width="120" height="80" as="geometry" />
        </mxCell>
        <mxCell id="X3aFYsN9jhFLCXPKWDU9-89" value="inMessage&lt;div&gt;outMessage&lt;/div&gt;" style="ellipse;whiteSpace=wrap;html=1;" parent="1" vertex="1">
          <mxGeometry x="570" y="3520" width="120" height="80" as="geometry" />
        </mxCell>
        <mxCell id="X3aFYsN9jhFLCXPKWDU9-90" value="repoStub" style="ellipse;whiteSpace=wrap;html=1;" parent="1" vertex="1">
          <mxGeometry x="570" y="3620" width="120" height="80" as="geometry" />
        </mxCell>
        <mxCell id="X3aFYsN9jhFLCXPKWDU9-91" value="com" style="ellipse;whiteSpace=wrap;html=1;" parent="1" vertex="1">
          <mxGeometry x="570" y="3780" width="120" height="80" as="geometry" />
        </mxCell>
        <mxCell id="X3aFYsN9jhFLCXPKWDU9-92" value="refereeSite" style="ellipse;whiteSpace=wrap;html=1;" parent="1" vertex="1">
          <mxGeometry x="345" y="3700" width="120" height="80" as="geometry" />
        </mxCell>
        <mxCell id="X3aFYsN9jhFLCXPKWDU9-95" value="" style="endArrow=classic;html=1;rounded=0;exitX=0.5;exitY=0;exitDx=0;exitDy=0;entryX=0.5;entryY=1;entryDx=0;entryDy=0;" parent="1" source="X3aFYsN9jhFLCXPKWDU9-83" target="X3aFYsN9jhFLCXPKWDU9-86" edge="1">
          <mxGeometry width="50" height="50" relative="1" as="geometry">
            <mxPoint x="330" y="3500" as="sourcePoint" />
            <mxPoint x="380" y="3450" as="targetPoint" />
          </mxGeometry>
        </mxCell>
        <mxCell id="X3aFYsN9jhFLCXPKWDU9-96" value="" style="endArrow=classic;html=1;rounded=0;exitX=0;exitY=0.5;exitDx=0;exitDy=0;" parent="1" source="X3aFYsN9jhFLCXPKWDU9-87" target="X3aFYsN9jhFLCXPKWDU9-86" edge="1">
          <mxGeometry width="50" height="50" relative="1" as="geometry">
            <mxPoint x="330" y="3500" as="sourcePoint" />
            <mxPoint x="380" y="3450" as="targetPoint" />
          </mxGeometry>
        </mxCell>
        <mxCell id="X3aFYsN9jhFLCXPKWDU9-97" value="" style="endArrow=classic;html=1;rounded=0;entryX=0.056;entryY=0.692;entryDx=0;entryDy=0;entryPerimeter=0;" parent="1" source="X3aFYsN9jhFLCXPKWDU9-83" target="X3aFYsN9jhFLCXPKWDU9-87" edge="1">
          <mxGeometry width="50" height="50" relative="1" as="geometry">
            <mxPoint x="330" y="3500" as="sourcePoint" />
            <mxPoint x="380" y="3450" as="targetPoint" />
          </mxGeometry>
        </mxCell>
        <mxCell id="X3aFYsN9jhFLCXPKWDU9-98" value="" style="endArrow=classic;html=1;rounded=0;entryX=0;entryY=0.5;entryDx=0;entryDy=0;exitX=1;exitY=0.5;exitDx=0;exitDy=0;" parent="1" source="X3aFYsN9jhFLCXPKWDU9-87" target="X3aFYsN9jhFLCXPKWDU9-88" edge="1">
          <mxGeometry width="50" height="50" relative="1" as="geometry">
            <mxPoint x="330" y="3500" as="sourcePoint" />
            <mxPoint x="380" y="3450" as="targetPoint" />
          </mxGeometry>
        </mxCell>
        <mxCell id="X3aFYsN9jhFLCXPKWDU9-99" value="" style="endArrow=classic;html=1;rounded=0;exitX=0.5;exitY=1;exitDx=0;exitDy=0;" parent="1" source="X3aFYsN9jhFLCXPKWDU9-88" target="X3aFYsN9jhFLCXPKWDU9-89" edge="1">
          <mxGeometry width="50" height="50" relative="1" as="geometry">
            <mxPoint x="330" y="3500" as="sourcePoint" />
            <mxPoint x="380" y="3450" as="targetPoint" />
          </mxGeometry>
        </mxCell>
        <mxCell id="X3aFYsN9jhFLCXPKWDU9-100" value="" style="endArrow=classic;html=1;rounded=0;entryX=0.012;entryY=0.413;entryDx=0;entryDy=0;entryPerimeter=0;exitX=1;exitY=0.5;exitDx=0;exitDy=0;" parent="1" source="X3aFYsN9jhFLCXPKWDU9-83" target="X3aFYsN9jhFLCXPKWDU9-90" edge="1">
          <mxGeometry width="50" height="50" relative="1" as="geometry">
            <mxPoint x="330" y="3500" as="sourcePoint" />
            <mxPoint x="380" y="3450" as="targetPoint" />
          </mxGeometry>
        </mxCell>
        <mxCell id="X3aFYsN9jhFLCXPKWDU9-101" value="" style="endArrow=classic;html=1;rounded=0;entryX=0.5;entryY=1;entryDx=0;entryDy=0;exitX=0.5;exitY=0;exitDx=0;exitDy=0;" parent="1" source="X3aFYsN9jhFLCXPKWDU9-90" target="X3aFYsN9jhFLCXPKWDU9-89" edge="1">
          <mxGeometry width="50" height="50" relative="1" as="geometry">
            <mxPoint x="330" y="3500" as="sourcePoint" />
            <mxPoint x="380" y="3450" as="targetPoint" />
          </mxGeometry>
        </mxCell>
        <mxCell id="X3aFYsN9jhFLCXPKWDU9-102" value="" style="endArrow=classic;html=1;rounded=0;exitX=0.5;exitY=1;exitDx=0;exitDy=0;entryX=0.5;entryY=0;entryDx=0;entryDy=0;" parent="1" source="X3aFYsN9jhFLCXPKWDU9-90" target="X3aFYsN9jhFLCXPKWDU9-91" edge="1">
          <mxGeometry width="50" height="50" relative="1" as="geometry">
            <mxPoint x="330" y="3500" as="sourcePoint" />
            <mxPoint x="380" y="3450" as="targetPoint" />
          </mxGeometry>
        </mxCell>
        <mxCell id="X3aFYsN9jhFLCXPKWDU9-105" value="" style="endArrow=classic;html=1;rounded=0;entryX=0;entryY=1;entryDx=0;entryDy=0;exitX=0.963;exitY=0.281;exitDx=0;exitDy=0;exitPerimeter=0;" parent="1" source="X3aFYsN9jhFLCXPKWDU9-83" target="X3aFYsN9jhFLCXPKWDU9-88" edge="1">
          <mxGeometry width="50" height="50" relative="1" as="geometry">
            <mxPoint x="330" y="3500" as="sourcePoint" />
            <mxPoint x="380" y="3450" as="targetPoint" />
          </mxGeometry>
        </mxCell>
        <mxCell id="X3aFYsN9jhFLCXPKWDU9-106" value="" style="endArrow=classic;html=1;rounded=0;entryX=0.003;entryY=0.692;entryDx=0;entryDy=0;entryPerimeter=0;exitX=0.991;exitY=0.401;exitDx=0;exitDy=0;exitPerimeter=0;" parent="1" source="X3aFYsN9jhFLCXPKWDU9-83" target="X3aFYsN9jhFLCXPKWDU9-92" edge="1">
          <mxGeometry width="50" height="50" relative="1" as="geometry">
            <mxPoint x="330" y="3500" as="sourcePoint" />
            <mxPoint x="380" y="3450" as="targetPoint" />
          </mxGeometry>
        </mxCell>
        <mxCell id="X3aFYsN9jhFLCXPKWDU9-109" value="" style="endArrow=classic;html=1;rounded=0;exitX=1;exitY=0.5;exitDx=0;exitDy=0;" parent="1" source="X3aFYsN9jhFLCXPKWDU9-92" target="X3aFYsN9jhFLCXPKWDU9-90" edge="1">
          <mxGeometry width="50" height="50" relative="1" as="geometry">
            <mxPoint x="330" y="3500" as="sourcePoint" />
            <mxPoint x="380" y="3450" as="targetPoint" />
          </mxGeometry>
        </mxCell>
        <mxCell id="X3aFYsN9jhFLCXPKWDU9-115" value="" style="endArrow=classic;html=1;rounded=0;exitX=0.338;exitY=0.986;exitDx=0;exitDy=0;exitPerimeter=0;" parent="1" source="X3aFYsN9jhFLCXPKWDU9-88" target="X3aFYsN9jhFLCXPKWDU9-92" edge="1">
          <mxGeometry width="50" height="50" relative="1" as="geometry">
            <mxPoint x="330" y="3600" as="sourcePoint" />
            <mxPoint x="380" y="3550" as="targetPoint" />
          </mxGeometry>
        </mxCell>
        <mxCell id="X3aFYsN9jhFLCXPKWDU9-116" value="&lt;h1 style=&quot;margin-top: 0px;&quot;&gt;Description&lt;/h1&gt;&lt;div&gt;&lt;ol&gt;&lt;li&gt;&lt;font style=&quot;font-size: 14px;&quot;&gt;instanciate,start,setTimeout,end&lt;/font&gt;&lt;/li&gt;&lt;li&gt;&lt;font style=&quot;font-size: 14px;&quot;&gt;instanciate&lt;/font&gt;&lt;/li&gt;&lt;li&gt;&lt;font style=&quot;font-size: 14px;&quot;&gt;instanciate,start&lt;/font&gt;&lt;/li&gt;&lt;li&gt;&lt;font style=&quot;font-size: 14px;&quot;&gt;readObject,writeObject,close&lt;/font&gt;&lt;/li&gt;&lt;li&gt;&lt;font style=&quot;font-size: 14px;&quot;&gt;processAndReply&lt;/font&gt;&lt;/li&gt;&lt;li&gt;&lt;font style=&quot;font-size: 14px;&quot;&gt;announceNewGame,informReferee,waitForInformReferee,shutdown&lt;/font&gt;&lt;/li&gt;&lt;li&gt;&lt;font style=&quot;font-size: 14px;&quot;&gt;getMsgType,getEntityState&lt;/font&gt;&lt;/li&gt;&lt;li&gt;&lt;font style=&quot;font-size: 14px;&quot;&gt;setRefereeState&lt;/font&gt;&lt;/li&gt;&lt;li&gt;&lt;font style=&quot;font-size: 14px;&quot;&gt;instanciate,open,close,readObject,writeObject&lt;/font&gt;&lt;/li&gt;&lt;/ol&gt;&lt;/div&gt;" style="text;html=1;whiteSpace=wrap;overflow=hidden;rounded=0;" parent="1" vertex="1">
          <mxGeometry x="87.5" y="3880" width="710" height="230" as="geometry" />
        </mxCell>
        <mxCell id="X3aFYsN9jhFLCXPKWDU9-117" value="" style="ellipse;whiteSpace=wrap;html=1;" parent="1" vertex="1">
          <mxGeometry x="90" y="4735" width="130" height="95" as="geometry" />
        </mxCell>
        <mxCell id="X3aFYsN9jhFLCXPKWDU9-118" value="ServerGameOfRope&lt;div&gt;Playground&lt;/div&gt;" style="ellipse;whiteSpace=wrap;html=1;strokeColor=default;fillColor=#000000;fontColor=#FFFFFF;" parent="1" vertex="1">
          <mxGeometry x="95" y="4742.5" width="120" height="80" as="geometry" />
        </mxCell>
        <mxCell id="X3aFYsN9jhFLCXPKWDU9-119" value="scon" style="ellipse;whiteSpace=wrap;html=1;" parent="1" vertex="1">
          <mxGeometry x="92.5" y="4520" width="120" height="80" as="geometry" />
        </mxCell>
        <mxCell id="X3aFYsN9jhFLCXPKWDU9-120" value="&lt;font color=&quot;#ffffff&quot;&gt;PlaygroundclientProxy&lt;/font&gt;" style="ellipse;whiteSpace=wrap;html=1;fillColor=#000000;" parent="1" vertex="1">
          <mxGeometry x="340" y="4520" width="120" height="80" as="geometry" />
        </mxCell>
        <mxCell id="X3aFYsN9jhFLCXPKWDU9-121" value="playgroundInterface" style="ellipse;whiteSpace=wrap;html=1;" parent="1" vertex="1">
          <mxGeometry x="590" y="4520" width="120" height="80" as="geometry" />
        </mxCell>
        <mxCell id="X3aFYsN9jhFLCXPKWDU9-122" value="inMessage&lt;div&gt;outMessage&lt;/div&gt;" style="ellipse;whiteSpace=wrap;html=1;" parent="1" vertex="1">
          <mxGeometry x="590" y="4650" width="120" height="80" as="geometry" />
        </mxCell>
        <mxCell id="X3aFYsN9jhFLCXPKWDU9-123" value="repoStub" style="ellipse;whiteSpace=wrap;html=1;" parent="1" vertex="1">
          <mxGeometry x="590" y="4750" width="120" height="80" as="geometry" />
        </mxCell>
        <mxCell id="X3aFYsN9jhFLCXPKWDU9-124" value="com" style="ellipse;whiteSpace=wrap;html=1;" parent="1" vertex="1">
          <mxGeometry x="590" y="4910" width="120" height="80" as="geometry" />
        </mxCell>
        <mxCell id="X3aFYsN9jhFLCXPKWDU9-125" value="playground" style="ellipse;whiteSpace=wrap;html=1;" parent="1" vertex="1">
          <mxGeometry x="362.5" y="4840" width="120" height="80" as="geometry" />
        </mxCell>
        <mxCell id="X3aFYsN9jhFLCXPKWDU9-128" value="" style="endArrow=classic;html=1;rounded=0;exitX=0.5;exitY=0;exitDx=0;exitDy=0;entryX=0.5;entryY=1;entryDx=0;entryDy=0;" parent="1" source="X3aFYsN9jhFLCXPKWDU9-117" target="X3aFYsN9jhFLCXPKWDU9-119" edge="1">
          <mxGeometry width="50" height="50" relative="1" as="geometry">
            <mxPoint x="350" y="4630" as="sourcePoint" />
            <mxPoint x="400" y="4580" as="targetPoint" />
          </mxGeometry>
        </mxCell>
        <mxCell id="X3aFYsN9jhFLCXPKWDU9-129" value="" style="endArrow=classic;html=1;rounded=0;exitX=0;exitY=0.5;exitDx=0;exitDy=0;" parent="1" source="X3aFYsN9jhFLCXPKWDU9-120" target="X3aFYsN9jhFLCXPKWDU9-119" edge="1">
          <mxGeometry width="50" height="50" relative="1" as="geometry">
            <mxPoint x="350" y="4630" as="sourcePoint" />
            <mxPoint x="400" y="4580" as="targetPoint" />
          </mxGeometry>
        </mxCell>
        <mxCell id="X3aFYsN9jhFLCXPKWDU9-130" value="" style="endArrow=classic;html=1;rounded=0;entryX=0.056;entryY=0.692;entryDx=0;entryDy=0;entryPerimeter=0;" parent="1" source="X3aFYsN9jhFLCXPKWDU9-117" target="X3aFYsN9jhFLCXPKWDU9-120" edge="1">
          <mxGeometry width="50" height="50" relative="1" as="geometry">
            <mxPoint x="350" y="4630" as="sourcePoint" />
            <mxPoint x="400" y="4580" as="targetPoint" />
          </mxGeometry>
        </mxCell>
        <mxCell id="X3aFYsN9jhFLCXPKWDU9-131" value="" style="endArrow=classic;html=1;rounded=0;entryX=0;entryY=0.5;entryDx=0;entryDy=0;exitX=1;exitY=0.5;exitDx=0;exitDy=0;" parent="1" source="X3aFYsN9jhFLCXPKWDU9-120" target="X3aFYsN9jhFLCXPKWDU9-121" edge="1">
          <mxGeometry width="50" height="50" relative="1" as="geometry">
            <mxPoint x="350" y="4630" as="sourcePoint" />
            <mxPoint x="400" y="4580" as="targetPoint" />
          </mxGeometry>
        </mxCell>
        <mxCell id="X3aFYsN9jhFLCXPKWDU9-132" value="" style="endArrow=classic;html=1;rounded=0;exitX=0.5;exitY=1;exitDx=0;exitDy=0;" parent="1" source="X3aFYsN9jhFLCXPKWDU9-121" target="X3aFYsN9jhFLCXPKWDU9-122" edge="1">
          <mxGeometry width="50" height="50" relative="1" as="geometry">
            <mxPoint x="350" y="4630" as="sourcePoint" />
            <mxPoint x="400" y="4580" as="targetPoint" />
          </mxGeometry>
        </mxCell>
        <mxCell id="X3aFYsN9jhFLCXPKWDU9-133" value="" style="endArrow=classic;html=1;rounded=0;entryX=0.012;entryY=0.413;entryDx=0;entryDy=0;entryPerimeter=0;exitX=1;exitY=0.5;exitDx=0;exitDy=0;" parent="1" source="X3aFYsN9jhFLCXPKWDU9-117" target="X3aFYsN9jhFLCXPKWDU9-123" edge="1">
          <mxGeometry width="50" height="50" relative="1" as="geometry">
            <mxPoint x="350" y="4630" as="sourcePoint" />
            <mxPoint x="400" y="4580" as="targetPoint" />
          </mxGeometry>
        </mxCell>
        <mxCell id="X3aFYsN9jhFLCXPKWDU9-134" value="" style="endArrow=classic;html=1;rounded=0;entryX=0.5;entryY=1;entryDx=0;entryDy=0;exitX=0.5;exitY=0;exitDx=0;exitDy=0;" parent="1" source="X3aFYsN9jhFLCXPKWDU9-123" target="X3aFYsN9jhFLCXPKWDU9-122" edge="1">
          <mxGeometry width="50" height="50" relative="1" as="geometry">
            <mxPoint x="350" y="4630" as="sourcePoint" />
            <mxPoint x="400" y="4580" as="targetPoint" />
          </mxGeometry>
        </mxCell>
        <mxCell id="X3aFYsN9jhFLCXPKWDU9-135" value="" style="endArrow=classic;html=1;rounded=0;exitX=0.5;exitY=1;exitDx=0;exitDy=0;entryX=0.5;entryY=0;entryDx=0;entryDy=0;" parent="1" source="X3aFYsN9jhFLCXPKWDU9-123" target="X3aFYsN9jhFLCXPKWDU9-124" edge="1">
          <mxGeometry width="50" height="50" relative="1" as="geometry">
            <mxPoint x="350" y="4630" as="sourcePoint" />
            <mxPoint x="400" y="4580" as="targetPoint" />
          </mxGeometry>
        </mxCell>
        <mxCell id="X3aFYsN9jhFLCXPKWDU9-138" value="" style="endArrow=classic;html=1;rounded=0;entryX=0;entryY=1;entryDx=0;entryDy=0;exitX=0.963;exitY=0.281;exitDx=0;exitDy=0;exitPerimeter=0;" parent="1" source="X3aFYsN9jhFLCXPKWDU9-117" target="X3aFYsN9jhFLCXPKWDU9-121" edge="1">
          <mxGeometry width="50" height="50" relative="1" as="geometry">
            <mxPoint x="350" y="4630" as="sourcePoint" />
            <mxPoint x="400" y="4580" as="targetPoint" />
          </mxGeometry>
        </mxCell>
        <mxCell id="X3aFYsN9jhFLCXPKWDU9-139" value="" style="endArrow=classic;html=1;rounded=0;entryX=0.003;entryY=0.692;entryDx=0;entryDy=0;entryPerimeter=0;exitX=0.991;exitY=0.401;exitDx=0;exitDy=0;exitPerimeter=0;" parent="1" source="X3aFYsN9jhFLCXPKWDU9-117" target="X3aFYsN9jhFLCXPKWDU9-125" edge="1">
          <mxGeometry width="50" height="50" relative="1" as="geometry">
            <mxPoint x="350" y="4630" as="sourcePoint" />
            <mxPoint x="400" y="4580" as="targetPoint" />
          </mxGeometry>
        </mxCell>
        <mxCell id="X3aFYsN9jhFLCXPKWDU9-142" value="" style="endArrow=classic;html=1;rounded=0;exitX=1;exitY=0.5;exitDx=0;exitDy=0;" parent="1" source="X3aFYsN9jhFLCXPKWDU9-125" target="X3aFYsN9jhFLCXPKWDU9-123" edge="1">
          <mxGeometry width="50" height="50" relative="1" as="geometry">
            <mxPoint x="350" y="4630" as="sourcePoint" />
            <mxPoint x="400" y="4580" as="targetPoint" />
          </mxGeometry>
        </mxCell>
        <mxCell id="X3aFYsN9jhFLCXPKWDU9-147" value="" style="endArrow=classic;html=1;rounded=0;exitX=0.338;exitY=0.986;exitDx=0;exitDy=0;exitPerimeter=0;" parent="1" source="X3aFYsN9jhFLCXPKWDU9-121" target="X3aFYsN9jhFLCXPKWDU9-125" edge="1">
          <mxGeometry width="50" height="50" relative="1" as="geometry">
            <mxPoint x="350" y="4730" as="sourcePoint" />
            <mxPoint x="400" y="4680" as="targetPoint" />
          </mxGeometry>
        </mxCell>
        <mxCell id="X3aFYsN9jhFLCXPKWDU9-148" value="&lt;h1 style=&quot;forced-color-adjust: none; color: rgb(0, 0, 0); font-family: Helvetica; font-style: normal; font-variant-ligatures: normal; font-variant-caps: normal; letter-spacing: normal; orphans: 2; text-align: left; text-indent: 0px; text-transform: none; widows: 2; word-spacing: 0px; -webkit-text-stroke-width: 0px; white-space: normal; background-color: rgb(251, 251, 251); text-decoration-thickness: initial; text-decoration-style: initial; text-decoration-color: initial; margin-top: 0px;&quot;&gt;Playground&lt;/h1&gt;" style="text;whiteSpace=wrap;html=1;" parent="1" vertex="1">
          <mxGeometry x="332.5" y="4410" width="150" height="70" as="geometry" />
        </mxCell>
        <mxCell id="X3aFYsN9jhFLCXPKWDU9-149" value="&lt;h1 style=&quot;margin-top: 0px;&quot;&gt;Description&lt;/h1&gt;&lt;div&gt;&lt;ol&gt;&lt;li&gt;&lt;font style=&quot;font-size: 14px;&quot;&gt;instanciate,start,setTimeout,end&lt;/font&gt;&lt;/li&gt;&lt;li&gt;&lt;font style=&quot;font-size: 14px;&quot;&gt;instanciate&lt;/font&gt;&lt;/li&gt;&lt;li&gt;&lt;font style=&quot;font-size: 14px;&quot;&gt;instanciate,start&lt;/font&gt;&lt;/li&gt;&lt;li&gt;&lt;font style=&quot;font-size: 14px;&quot;&gt;readObject,writeObject,close&lt;/font&gt;&lt;/li&gt;&lt;li&gt;&lt;font style=&quot;font-size: 14px;&quot;&gt;processAndReply&lt;/font&gt;&lt;/li&gt;&lt;li&gt;&lt;font style=&quot;font-size: 12px;&quot;&gt;followCoachAdvice,waitForFollowCoachAdvise,startTrial,waitForStartTrial,getReady,waitForAmDone,assertTrialDecision,waitForAssertTrialDecision,declareGameW&lt;/font&gt;&lt;/li&gt;&lt;li&gt;&lt;font style=&quot;font-size: 14px;&quot;&gt;getMsgType,getEntityState,getTeam,getID,getStrength,getRefereeeState,getCoachState,getContestantState,getEntityState&lt;/font&gt;&lt;/li&gt;&lt;li&gt;&lt;font style=&quot;font-size: 14px;&quot;&gt;setRefereeState,setContestantState,setCoachState,setStrengh,setID,setContestantTeam,setCoachTeam&lt;/font&gt;&lt;/li&gt;&lt;li&gt;&lt;font style=&quot;font-size: 14px;&quot;&gt;instanciate,open,close,readObject,writeObject&lt;/font&gt;&lt;/li&gt;&lt;/ol&gt;&lt;/div&gt;" style="text;html=1;whiteSpace=wrap;overflow=hidden;rounded=0;" parent="1" vertex="1">
          <mxGeometry x="-1.5" y="5010" width="851.5" height="230" as="geometry" />
        </mxCell>
        <mxCell id="X3aFYsN9jhFLCXPKWDU9-150" value="" style="ellipse;whiteSpace=wrap;html=1;" parent="1" vertex="1">
          <mxGeometry x="105" y="5805" width="130" height="95" as="geometry" />
        </mxCell>
        <mxCell id="X3aFYsN9jhFLCXPKWDU9-151" value="ServerGameOfRope&lt;div&gt;ContestantBench&lt;/div&gt;" style="ellipse;whiteSpace=wrap;html=1;strokeColor=default;fillColor=#000000;fontColor=#FFFFFF;" parent="1" vertex="1">
          <mxGeometry x="110" y="5812.5" width="120" height="80" as="geometry" />
        </mxCell>
        <mxCell id="X3aFYsN9jhFLCXPKWDU9-152" value="scon" style="ellipse;whiteSpace=wrap;html=1;" parent="1" vertex="1">
          <mxGeometry x="107.5" y="5590" width="120" height="80" as="geometry" />
        </mxCell>
        <mxCell id="X3aFYsN9jhFLCXPKWDU9-153" value="&lt;font color=&quot;#ffffff&quot;&gt;clientProxy&lt;/font&gt;" style="ellipse;whiteSpace=wrap;html=1;fillColor=#000000;" parent="1" vertex="1">
          <mxGeometry x="355" y="5590" width="120" height="80" as="geometry" />
        </mxCell>
        <mxCell id="X3aFYsN9jhFLCXPKWDU9-154" value="contestantBenchInterface" style="ellipse;whiteSpace=wrap;html=1;" parent="1" vertex="1">
          <mxGeometry x="605" y="5590" width="120" height="80" as="geometry" />
        </mxCell>
        <mxCell id="X3aFYsN9jhFLCXPKWDU9-155" value="inMessage&lt;div&gt;outMessage&lt;/div&gt;" style="ellipse;whiteSpace=wrap;html=1;" parent="1" vertex="1">
          <mxGeometry x="605" y="5720" width="120" height="80" as="geometry" />
        </mxCell>
        <mxCell id="X3aFYsN9jhFLCXPKWDU9-156" value="repoStub" style="ellipse;whiteSpace=wrap;html=1;" parent="1" vertex="1">
          <mxGeometry x="605" y="5820" width="120" height="80" as="geometry" />
        </mxCell>
        <mxCell id="X3aFYsN9jhFLCXPKWDU9-157" value="com" style="ellipse;whiteSpace=wrap;html=1;" parent="1" vertex="1">
          <mxGeometry x="605" y="5980" width="120" height="80" as="geometry" />
        </mxCell>
        <mxCell id="X3aFYsN9jhFLCXPKWDU9-158" value="contestanttBench" style="ellipse;whiteSpace=wrap;html=1;" parent="1" vertex="1">
          <mxGeometry x="365" y="5920" width="120" height="80" as="geometry" />
        </mxCell>
        <mxCell id="X3aFYsN9jhFLCXPKWDU9-161" value="" style="endArrow=classic;html=1;rounded=0;exitX=0.5;exitY=0;exitDx=0;exitDy=0;entryX=0.5;entryY=1;entryDx=0;entryDy=0;" parent="1" source="X3aFYsN9jhFLCXPKWDU9-150" target="X3aFYsN9jhFLCXPKWDU9-152" edge="1">
          <mxGeometry width="50" height="50" relative="1" as="geometry">
            <mxPoint x="365" y="5700" as="sourcePoint" />
            <mxPoint x="415" y="5650" as="targetPoint" />
          </mxGeometry>
        </mxCell>
        <mxCell id="X3aFYsN9jhFLCXPKWDU9-162" value="" style="endArrow=classic;html=1;rounded=0;exitX=0;exitY=0.5;exitDx=0;exitDy=0;" parent="1" source="X3aFYsN9jhFLCXPKWDU9-153" target="X3aFYsN9jhFLCXPKWDU9-152" edge="1">
          <mxGeometry width="50" height="50" relative="1" as="geometry">
            <mxPoint x="365" y="5700" as="sourcePoint" />
            <mxPoint x="415" y="5650" as="targetPoint" />
          </mxGeometry>
        </mxCell>
        <mxCell id="X3aFYsN9jhFLCXPKWDU9-163" value="" style="endArrow=classic;html=1;rounded=0;entryX=0.056;entryY=0.692;entryDx=0;entryDy=0;entryPerimeter=0;" parent="1" source="X3aFYsN9jhFLCXPKWDU9-150" target="X3aFYsN9jhFLCXPKWDU9-153" edge="1">
          <mxGeometry width="50" height="50" relative="1" as="geometry">
            <mxPoint x="365" y="5700" as="sourcePoint" />
            <mxPoint x="415" y="5650" as="targetPoint" />
          </mxGeometry>
        </mxCell>
        <mxCell id="X3aFYsN9jhFLCXPKWDU9-164" value="" style="endArrow=classic;html=1;rounded=0;entryX=0;entryY=0.5;entryDx=0;entryDy=0;exitX=1;exitY=0.5;exitDx=0;exitDy=0;" parent="1" source="X3aFYsN9jhFLCXPKWDU9-153" target="X3aFYsN9jhFLCXPKWDU9-154" edge="1">
          <mxGeometry width="50" height="50" relative="1" as="geometry">
            <mxPoint x="365" y="5700" as="sourcePoint" />
            <mxPoint x="415" y="5650" as="targetPoint" />
          </mxGeometry>
        </mxCell>
        <mxCell id="X3aFYsN9jhFLCXPKWDU9-165" value="" style="endArrow=classic;html=1;rounded=0;exitX=0.5;exitY=1;exitDx=0;exitDy=0;" parent="1" source="X3aFYsN9jhFLCXPKWDU9-154" target="X3aFYsN9jhFLCXPKWDU9-155" edge="1">
          <mxGeometry width="50" height="50" relative="1" as="geometry">
            <mxPoint x="365" y="5700" as="sourcePoint" />
            <mxPoint x="415" y="5650" as="targetPoint" />
          </mxGeometry>
        </mxCell>
        <mxCell id="X3aFYsN9jhFLCXPKWDU9-166" value="" style="endArrow=classic;html=1;rounded=0;entryX=0.012;entryY=0.413;entryDx=0;entryDy=0;entryPerimeter=0;exitX=1;exitY=0.5;exitDx=0;exitDy=0;" parent="1" source="X3aFYsN9jhFLCXPKWDU9-150" target="X3aFYsN9jhFLCXPKWDU9-156" edge="1">
          <mxGeometry width="50" height="50" relative="1" as="geometry">
            <mxPoint x="365" y="5700" as="sourcePoint" />
            <mxPoint x="415" y="5650" as="targetPoint" />
          </mxGeometry>
        </mxCell>
        <mxCell id="X3aFYsN9jhFLCXPKWDU9-167" value="" style="endArrow=classic;html=1;rounded=0;entryX=0.5;entryY=1;entryDx=0;entryDy=0;exitX=0.5;exitY=0;exitDx=0;exitDy=0;" parent="1" source="X3aFYsN9jhFLCXPKWDU9-156" target="X3aFYsN9jhFLCXPKWDU9-155" edge="1">
          <mxGeometry width="50" height="50" relative="1" as="geometry">
            <mxPoint x="365" y="5700" as="sourcePoint" />
            <mxPoint x="415" y="5650" as="targetPoint" />
          </mxGeometry>
        </mxCell>
        <mxCell id="X3aFYsN9jhFLCXPKWDU9-168" value="" style="endArrow=classic;html=1;rounded=0;exitX=0.5;exitY=1;exitDx=0;exitDy=0;entryX=0.5;entryY=0;entryDx=0;entryDy=0;" parent="1" source="X3aFYsN9jhFLCXPKWDU9-156" target="X3aFYsN9jhFLCXPKWDU9-157" edge="1">
          <mxGeometry width="50" height="50" relative="1" as="geometry">
            <mxPoint x="365" y="5700" as="sourcePoint" />
            <mxPoint x="415" y="5650" as="targetPoint" />
          </mxGeometry>
        </mxCell>
        <mxCell id="X3aFYsN9jhFLCXPKWDU9-171" value="" style="endArrow=classic;html=1;rounded=0;entryX=0;entryY=1;entryDx=0;entryDy=0;exitX=0.963;exitY=0.281;exitDx=0;exitDy=0;exitPerimeter=0;" parent="1" source="X3aFYsN9jhFLCXPKWDU9-150" target="X3aFYsN9jhFLCXPKWDU9-154" edge="1">
          <mxGeometry width="50" height="50" relative="1" as="geometry">
            <mxPoint x="365" y="5700" as="sourcePoint" />
            <mxPoint x="415" y="5650" as="targetPoint" />
          </mxGeometry>
        </mxCell>
        <mxCell id="X3aFYsN9jhFLCXPKWDU9-172" value="" style="endArrow=classic;html=1;rounded=0;entryX=0.003;entryY=0.692;entryDx=0;entryDy=0;entryPerimeter=0;exitX=0.991;exitY=0.401;exitDx=0;exitDy=0;exitPerimeter=0;" parent="1" source="X3aFYsN9jhFLCXPKWDU9-150" target="X3aFYsN9jhFLCXPKWDU9-158" edge="1">
          <mxGeometry width="50" height="50" relative="1" as="geometry">
            <mxPoint x="365" y="5700" as="sourcePoint" />
            <mxPoint x="415" y="5650" as="targetPoint" />
          </mxGeometry>
        </mxCell>
        <mxCell id="X3aFYsN9jhFLCXPKWDU9-175" value="" style="endArrow=classic;html=1;rounded=0;exitX=1;exitY=0.5;exitDx=0;exitDy=0;" parent="1" source="X3aFYsN9jhFLCXPKWDU9-158" target="X3aFYsN9jhFLCXPKWDU9-156" edge="1">
          <mxGeometry width="50" height="50" relative="1" as="geometry">
            <mxPoint x="365" y="5700" as="sourcePoint" />
            <mxPoint x="415" y="5650" as="targetPoint" />
          </mxGeometry>
        </mxCell>
        <mxCell id="X3aFYsN9jhFLCXPKWDU9-180" value="" style="endArrow=classic;html=1;rounded=0;exitX=0.338;exitY=0.986;exitDx=0;exitDy=0;exitPerimeter=0;" parent="1" source="X3aFYsN9jhFLCXPKWDU9-154" target="X3aFYsN9jhFLCXPKWDU9-158" edge="1">
          <mxGeometry width="50" height="50" relative="1" as="geometry">
            <mxPoint x="365" y="5800" as="sourcePoint" />
            <mxPoint x="415" y="5750" as="targetPoint" />
          </mxGeometry>
        </mxCell>
        <mxCell id="X3aFYsN9jhFLCXPKWDU9-181" value="&lt;h1 style=&quot;forced-color-adjust: none; color: rgb(0, 0, 0); font-family: Helvetica; font-style: normal; font-variant-ligatures: normal; font-variant-caps: normal; letter-spacing: normal; orphans: 2; text-align: left; text-indent: 0px; text-transform: none; widows: 2; word-spacing: 0px; -webkit-text-stroke-width: 0px; white-space: normal; background-color: rgb(251, 251, 251); text-decoration-thickness: initial; text-decoration-style: initial; text-decoration-color: initial; margin-top: 0px;&quot;&gt;ContestantBench&lt;/h1&gt;" style="text;whiteSpace=wrap;html=1;" parent="1" vertex="1">
          <mxGeometry x="345" y="5500" width="205" height="70" as="geometry" />
        </mxCell>
        <mxCell id="X3aFYsN9jhFLCXPKWDU9-183" value="&lt;h1 style=&quot;margin-top: 0px;&quot;&gt;Description&lt;/h1&gt;&lt;div&gt;&lt;ol&gt;&lt;li&gt;&lt;font style=&quot;font-size: 14px;&quot;&gt;instanciate,start,setTimeout,end&lt;/font&gt;&lt;/li&gt;&lt;li&gt;&lt;font style=&quot;font-size: 14px;&quot;&gt;instanciate&lt;/font&gt;&lt;/li&gt;&lt;li&gt;&lt;font style=&quot;font-size: 14px;&quot;&gt;instanciate,start&lt;/font&gt;&lt;/li&gt;&lt;li&gt;&lt;font style=&quot;font-size: 14px;&quot;&gt;readObject,writeObject,close&lt;/font&gt;&lt;/li&gt;&lt;li&gt;&lt;font style=&quot;font-size: 14px;&quot;&gt;processAndReply&lt;/font&gt;&lt;/li&gt;&lt;li&gt;&lt;font style=&quot;font-size: 14px;&quot;&gt;callTrial,seatDown,reviewNotes,waitForCallTrial,callContestants,waitForCallContestants,waitForSeatAtBench,declareMatchWinner&lt;/font&gt;&lt;/li&gt;&lt;li&gt;&lt;font style=&quot;font-size: 14px;&quot;&gt;getMsgType,getEntityState,getTeam,getID,getStrength,getRefereeeState,getCoachState,getContestantState,getEntityState&lt;/font&gt;&lt;/li&gt;&lt;li&gt;&lt;font style=&quot;font-size: 14px;&quot;&gt;setRefereeState,setContestantState,setCoachState,setStrengh,setID,setContestantTeam,setCoachTeam&lt;/font&gt;&lt;/li&gt;&lt;li&gt;&lt;font style=&quot;font-size: 14px;&quot;&gt;instanciate,open,close,readObject,writeObject&lt;/font&gt;&lt;/li&gt;&lt;/ol&gt;&lt;/div&gt;" style="text;html=1;whiteSpace=wrap;overflow=hidden;rounded=0;" parent="1" vertex="1">
          <mxGeometry y="6130" width="850" height="210" as="geometry" />
        </mxCell>
        <mxCell id="X3aFYsN9jhFLCXPKWDU9-184" value="" style="ellipse;whiteSpace=wrap;html=1;" parent="1" vertex="1">
          <mxGeometry x="107.5" y="7010" width="130" height="95" as="geometry" />
        </mxCell>
        <mxCell id="X3aFYsN9jhFLCXPKWDU9-185" value="ServerGameOfRope&lt;div&gt;Repository&lt;/div&gt;" style="ellipse;whiteSpace=wrap;html=1;strokeColor=default;fillColor=#000000;fontColor=#FFFFFF;" parent="1" vertex="1">
          <mxGeometry x="112.5" y="7017.5" width="120" height="80" as="geometry" />
        </mxCell>
        <mxCell id="X3aFYsN9jhFLCXPKWDU9-186" value="scon" style="ellipse;whiteSpace=wrap;html=1;" parent="1" vertex="1">
          <mxGeometry x="107.5" y="6700" width="120" height="80" as="geometry" />
        </mxCell>
        <mxCell id="X3aFYsN9jhFLCXPKWDU9-187" value="&lt;font color=&quot;#ffffff&quot;&gt;clientProxy&lt;/font&gt;" style="ellipse;whiteSpace=wrap;html=1;fillColor=#000000;" parent="1" vertex="1">
          <mxGeometry x="355" y="6700" width="120" height="80" as="geometry" />
        </mxCell>
        <mxCell id="X3aFYsN9jhFLCXPKWDU9-188" value="reposInterface" style="ellipse;whiteSpace=wrap;html=1;" parent="1" vertex="1">
          <mxGeometry x="605" y="6700" width="120" height="80" as="geometry" />
        </mxCell>
        <mxCell id="X3aFYsN9jhFLCXPKWDU9-189" value="inMessage&lt;div&gt;outMessage&lt;/div&gt;" style="ellipse;whiteSpace=wrap;html=1;" parent="1" vertex="1">
          <mxGeometry x="605" y="6830" width="120" height="80" as="geometry" />
        </mxCell>
        <mxCell id="X3aFYsN9jhFLCXPKWDU9-191" value="log" style="ellipse;whiteSpace=wrap;html=1;" parent="1" vertex="1">
          <mxGeometry x="610" y="7017.5" width="120" height="80" as="geometry" />
        </mxCell>
        <mxCell id="X3aFYsN9jhFLCXPKWDU9-192" value="GeneralRepository" style="ellipse;whiteSpace=wrap;html=1;" parent="1" vertex="1">
          <mxGeometry x="355" y="7017.5" width="120" height="80" as="geometry" />
        </mxCell>
        <mxCell id="X3aFYsN9jhFLCXPKWDU9-194" value="" style="endArrow=classic;html=1;rounded=0;exitX=0.5;exitY=0;exitDx=0;exitDy=0;entryX=0.5;entryY=1;entryDx=0;entryDy=0;" parent="1" source="X3aFYsN9jhFLCXPKWDU9-184" target="X3aFYsN9jhFLCXPKWDU9-186" edge="1">
          <mxGeometry width="50" height="50" relative="1" as="geometry">
            <mxPoint x="365" y="6810" as="sourcePoint" />
            <mxPoint x="415" y="6760" as="targetPoint" />
          </mxGeometry>
        </mxCell>
        <mxCell id="X3aFYsN9jhFLCXPKWDU9-195" value="" style="endArrow=classic;html=1;rounded=0;exitX=0;exitY=0.5;exitDx=0;exitDy=0;" parent="1" source="X3aFYsN9jhFLCXPKWDU9-187" target="X3aFYsN9jhFLCXPKWDU9-186" edge="1">
          <mxGeometry width="50" height="50" relative="1" as="geometry">
            <mxPoint x="365" y="6810" as="sourcePoint" />
            <mxPoint x="415" y="6760" as="targetPoint" />
          </mxGeometry>
        </mxCell>
        <mxCell id="X3aFYsN9jhFLCXPKWDU9-196" value="" style="endArrow=classic;html=1;rounded=0;entryX=0.056;entryY=0.692;entryDx=0;entryDy=0;entryPerimeter=0;" parent="1" source="X3aFYsN9jhFLCXPKWDU9-184" target="X3aFYsN9jhFLCXPKWDU9-187" edge="1">
          <mxGeometry width="50" height="50" relative="1" as="geometry">
            <mxPoint x="365" y="6810" as="sourcePoint" />
            <mxPoint x="415" y="6760" as="targetPoint" />
          </mxGeometry>
        </mxCell>
        <mxCell id="X3aFYsN9jhFLCXPKWDU9-197" value="" style="endArrow=classic;html=1;rounded=0;entryX=0;entryY=0.5;entryDx=0;entryDy=0;exitX=1;exitY=0.5;exitDx=0;exitDy=0;" parent="1" source="X3aFYsN9jhFLCXPKWDU9-187" target="X3aFYsN9jhFLCXPKWDU9-188" edge="1">
          <mxGeometry width="50" height="50" relative="1" as="geometry">
            <mxPoint x="365" y="6810" as="sourcePoint" />
            <mxPoint x="415" y="6760" as="targetPoint" />
          </mxGeometry>
        </mxCell>
        <mxCell id="X3aFYsN9jhFLCXPKWDU9-198" value="" style="endArrow=classic;html=1;rounded=0;exitX=0.5;exitY=1;exitDx=0;exitDy=0;" parent="1" source="X3aFYsN9jhFLCXPKWDU9-188" target="X3aFYsN9jhFLCXPKWDU9-189" edge="1">
          <mxGeometry width="50" height="50" relative="1" as="geometry">
            <mxPoint x="365" y="6810" as="sourcePoint" />
            <mxPoint x="415" y="6760" as="targetPoint" />
          </mxGeometry>
        </mxCell>
        <mxCell id="X3aFYsN9jhFLCXPKWDU9-202" value="" style="endArrow=classic;html=1;rounded=0;entryX=0;entryY=1;entryDx=0;entryDy=0;exitX=0.963;exitY=0.281;exitDx=0;exitDy=0;exitPerimeter=0;" parent="1" source="X3aFYsN9jhFLCXPKWDU9-184" target="X3aFYsN9jhFLCXPKWDU9-188" edge="1">
          <mxGeometry width="50" height="50" relative="1" as="geometry">
            <mxPoint x="365" y="6810" as="sourcePoint" />
            <mxPoint x="415" y="6760" as="targetPoint" />
          </mxGeometry>
        </mxCell>
        <mxCell id="X3aFYsN9jhFLCXPKWDU9-203" value="" style="endArrow=classic;html=1;rounded=0;entryX=0;entryY=0.5;entryDx=0;entryDy=0;exitX=1;exitY=0.5;exitDx=0;exitDy=0;" parent="1" source="X3aFYsN9jhFLCXPKWDU9-184" target="X3aFYsN9jhFLCXPKWDU9-192" edge="1">
          <mxGeometry width="50" height="50" relative="1" as="geometry">
            <mxPoint x="365" y="6810" as="sourcePoint" />
            <mxPoint x="415" y="6760" as="targetPoint" />
          </mxGeometry>
        </mxCell>
        <mxCell id="X3aFYsN9jhFLCXPKWDU9-205" value="" style="endArrow=classic;html=1;rounded=0;exitX=1;exitY=0.5;exitDx=0;exitDy=0;" parent="1" source="X3aFYsN9jhFLCXPKWDU9-192" target="X3aFYsN9jhFLCXPKWDU9-191" edge="1">
          <mxGeometry width="50" height="50" relative="1" as="geometry">
            <mxPoint x="365" y="6810" as="sourcePoint" />
            <mxPoint x="617.2629738700048" y="6994.231992959389" as="targetPoint" />
          </mxGeometry>
        </mxCell>
        <mxCell id="X3aFYsN9jhFLCXPKWDU9-208" value="" style="endArrow=classic;html=1;rounded=0;exitX=0.338;exitY=0.986;exitDx=0;exitDy=0;exitPerimeter=0;" parent="1" source="X3aFYsN9jhFLCXPKWDU9-188" target="X3aFYsN9jhFLCXPKWDU9-192" edge="1">
          <mxGeometry width="50" height="50" relative="1" as="geometry">
            <mxPoint x="365" y="6910" as="sourcePoint" />
            <mxPoint x="415" y="6860" as="targetPoint" />
          </mxGeometry>
        </mxCell>
        <mxCell id="X3aFYsN9jhFLCXPKWDU9-209" value="&lt;h1 style=&quot;forced-color-adjust: none; color: rgb(0, 0, 0); font-family: Helvetica; font-style: normal; font-variant-ligatures: normal; font-variant-caps: normal; letter-spacing: normal; orphans: 2; text-align: left; text-indent: 0px; text-transform: none; widows: 2; word-spacing: 0px; -webkit-text-stroke-width: 0px; white-space: normal; background-color: rgb(251, 251, 251); text-decoration-thickness: initial; text-decoration-style: initial; text-decoration-color: initial; margin-top: 0px;&quot;&gt;GeneralRepository&lt;/h1&gt;" style="text;whiteSpace=wrap;html=1;" parent="1" vertex="1">
          <mxGeometry x="312.5" y="6610" width="205" height="70" as="geometry" />
        </mxCell>
        <mxCell id="X3aFYsN9jhFLCXPKWDU9-210" value="&lt;h1 style=&quot;margin-top: 0px;&quot;&gt;Description&lt;/h1&gt;&lt;div&gt;&lt;ol&gt;&lt;li&gt;&lt;font style=&quot;font-size: 14px;&quot;&gt;instanciate,start,setTimeout,end&lt;/font&gt;&lt;/li&gt;&lt;li&gt;&lt;font style=&quot;font-size: 14px;&quot;&gt;instanciate&lt;/font&gt;&lt;/li&gt;&lt;li&gt;&lt;font style=&quot;font-size: 14px;&quot;&gt;instanciate,start&lt;/font&gt;&lt;/li&gt;&lt;li&gt;&lt;font style=&quot;font-size: 14px;&quot;&gt;readObject,writeObject,close&lt;/font&gt;&lt;/li&gt;&lt;li&gt;&lt;font style=&quot;font-size: 14px;&quot;&gt;processAndReply&lt;/font&gt;&lt;/li&gt;&lt;li&gt;&lt;font style=&quot;font-size: 12px;&quot;&gt;setRefereeState,setContestantState,setCoachState,setRemoveContestant,setActiveContestant,setContestantStrength,setRopePosition.newgameStarted,setNewTrial,&amp;nbsp; setEndOfGame,showGameResult,setMatchWinner,initSimul&lt;/font&gt;&lt;/li&gt;&lt;li&gt;&lt;span style=&quot;font-size: 14px; background-color: initial;&quot;&gt;getMsgType,getEntityState,getTeam,getID,getStrength,getRefereeeState,getCoachState,getContestantState,getEntityState,getScores,getRopePosition&lt;/span&gt;&lt;br&gt;&lt;/li&gt;&lt;li&gt;&lt;font style=&quot;font-size: 14px;&quot;&gt;instanciate,open,close,readObject,writeObject&lt;/font&gt;&lt;/li&gt;&lt;/ol&gt;&lt;/div&gt;" style="text;html=1;whiteSpace=wrap;overflow=hidden;rounded=0;" parent="1" vertex="1">
          <mxGeometry y="7270" width="850" height="230" as="geometry" />
        </mxCell>
        <mxCell id="q-exiN7DYNfEDr6AAshW-1" value="1" style="text;html=1;align=center;verticalAlign=middle;whiteSpace=wrap;rounded=0;" parent="1" vertex="1">
          <mxGeometry x="155" y="250" width="60" height="30" as="geometry" />
        </mxCell>
        <mxCell id="q-exiN7DYNfEDr6AAshW-2" value="2" style="text;html=1;align=center;verticalAlign=middle;whiteSpace=wrap;rounded=0;" parent="1" vertex="1">
          <mxGeometry x="237.5" y="307.5" width="60" height="30" as="geometry" />
        </mxCell>
        <mxCell id="q-exiN7DYNfEDr6AAshW-3" value="2" style="text;html=1;align=center;verticalAlign=middle;whiteSpace=wrap;rounded=0;" parent="1" vertex="1">
          <mxGeometry x="260" y="365" width="60" height="30" as="geometry" />
        </mxCell>
        <mxCell id="q-exiN7DYNfEDr6AAshW-4" value="2" style="text;html=1;align=center;verticalAlign=middle;whiteSpace=wrap;rounded=0;" parent="1" vertex="1">
          <mxGeometry x="257.5" y="430" width="60" height="30" as="geometry" />
        </mxCell>
        <mxCell id="q-exiN7DYNfEDr6AAshW-5" value="3" style="text;html=1;align=center;verticalAlign=middle;whiteSpace=wrap;rounded=0;" parent="1" vertex="1">
          <mxGeometry x="332.5" y="160" width="60" height="30" as="geometry" />
        </mxCell>
        <mxCell id="q-exiN7DYNfEDr6AAshW-6" value="4" style="text;html=1;align=center;verticalAlign=middle;whiteSpace=wrap;rounded=0;" parent="1" vertex="1">
          <mxGeometry x="295" y="205" width="60" height="30" as="geometry" />
        </mxCell>
        <mxCell id="q-exiN7DYNfEDr6AAshW-7" value="5" style="text;html=1;align=center;verticalAlign=middle;whiteSpace=wrap;rounded=0;" parent="1" vertex="1">
          <mxGeometry x="240" y="250" width="60" height="30" as="geometry" />
        </mxCell>
        <mxCell id="q-exiN7DYNfEDr6AAshW-8" value="6" style="text;html=1;align=center;verticalAlign=middle;whiteSpace=wrap;rounded=0;" parent="1" vertex="1">
          <mxGeometry x="550" y="230" width="60" height="30" as="geometry" />
        </mxCell>
        <mxCell id="q-exiN7DYNfEDr6AAshW-9" value="6" style="text;html=1;align=center;verticalAlign=middle;whiteSpace=wrap;rounded=0;" parent="1" vertex="1">
          <mxGeometry x="495" y="320" width="60" height="22.5" as="geometry" />
        </mxCell>
        <mxCell id="q-exiN7DYNfEDr6AAshW-10" value="6" style="text;html=1;align=center;verticalAlign=middle;whiteSpace=wrap;rounded=0;" parent="1" vertex="1">
          <mxGeometry x="480" y="430" width="60" height="30" as="geometry" />
        </mxCell>
        <mxCell id="q-exiN7DYNfEDr6AAshW-11" value="7" style="text;html=1;align=center;verticalAlign=middle;whiteSpace=wrap;rounded=0;" parent="1" vertex="1">
          <mxGeometry x="480" y="270" width="60" height="30" as="geometry" />
        </mxCell>
        <mxCell id="q-exiN7DYNfEDr6AAshW-12" value="8" style="text;html=1;align=center;verticalAlign=middle;whiteSpace=wrap;rounded=0;" parent="1" vertex="1">
          <mxGeometry x="490" y="380" width="60" height="30" as="geometry" />
        </mxCell>
        <mxCell id="q-exiN7DYNfEDr6AAshW-13" value="9" style="text;html=1;align=center;verticalAlign=middle;whiteSpace=wrap;rounded=0;" parent="1" vertex="1">
          <mxGeometry x="517.5" y="490" width="60" height="30" as="geometry" />
        </mxCell>
        <mxCell id="q-exiN7DYNfEDr6AAshW-14" value="10" style="text;html=1;align=center;verticalAlign=middle;whiteSpace=wrap;rounded=0;" parent="1" vertex="1">
          <mxGeometry x="660" y="357.5" width="60" height="30" as="geometry" />
        </mxCell>
        <mxCell id="q-exiN7DYNfEDr6AAshW-15" value="1" style="text;html=1;align=center;verticalAlign=middle;whiteSpace=wrap;rounded=0;" parent="1" vertex="1">
          <mxGeometry x="152.5" y="1360" width="60" height="30" as="geometry" />
        </mxCell>
        <mxCell id="q-exiN7DYNfEDr6AAshW-16" value="2" style="text;html=1;align=center;verticalAlign=middle;whiteSpace=wrap;rounded=0;" parent="1" vertex="1">
          <mxGeometry x="227.5" y="1400" width="60" height="30" as="geometry" />
        </mxCell>
        <mxCell id="q-exiN7DYNfEDr6AAshW-17" value="2" style="text;html=1;align=center;verticalAlign=middle;whiteSpace=wrap;rounded=0;" parent="1" vertex="1">
          <mxGeometry x="237.5" y="1442.5" width="60" height="30" as="geometry" />
        </mxCell>
        <mxCell id="q-exiN7DYNfEDr6AAshW-18" value="2" style="text;html=1;align=center;verticalAlign=middle;whiteSpace=wrap;rounded=0;" parent="1" vertex="1">
          <mxGeometry x="240" y="1497.5" width="60" height="30" as="geometry" />
        </mxCell>
        <mxCell id="q-exiN7DYNfEDr6AAshW-19" value="3" style="text;html=1;align=center;verticalAlign=middle;whiteSpace=wrap;rounded=0;" parent="1" vertex="1">
          <mxGeometry x="315" y="1270" width="60" height="30" as="geometry" />
        </mxCell>
        <mxCell id="q-exiN7DYNfEDr6AAshW-20" value="4" style="text;html=1;align=center;verticalAlign=middle;whiteSpace=wrap;rounded=0;" parent="1" vertex="1">
          <mxGeometry x="292.5" y="1315" width="60" height="30" as="geometry" />
        </mxCell>
        <mxCell id="q-exiN7DYNfEDr6AAshW-21" value="5" style="text;html=1;align=center;verticalAlign=middle;whiteSpace=wrap;rounded=0;" parent="1" vertex="1">
          <mxGeometry x="270" y="1345" width="60" height="30" as="geometry" />
        </mxCell>
        <mxCell id="q-exiN7DYNfEDr6AAshW-23" value="6" style="text;html=1;align=center;verticalAlign=middle;whiteSpace=wrap;rounded=0;" parent="1" vertex="1">
          <mxGeometry x="517.5" y="1330" width="60" height="30" as="geometry" />
        </mxCell>
        <mxCell id="q-exiN7DYNfEDr6AAshW-24" value="6" style="text;html=1;align=center;verticalAlign=middle;whiteSpace=wrap;rounded=0;" parent="1" vertex="1">
          <mxGeometry x="490" y="1430" width="60" height="30" as="geometry" />
        </mxCell>
        <mxCell id="q-exiN7DYNfEDr6AAshW-25" value="6" style="text;html=1;align=center;verticalAlign=middle;whiteSpace=wrap;rounded=0;" parent="1" vertex="1">
          <mxGeometry x="470" y="1540" width="60" height="30" as="geometry" />
        </mxCell>
        <mxCell id="q-exiN7DYNfEDr6AAshW-26" value="7" style="text;html=1;align=center;verticalAlign=middle;whiteSpace=wrap;rounded=0;" parent="1" vertex="1">
          <mxGeometry x="475" y="1375" width="60" height="30" as="geometry" />
        </mxCell>
        <mxCell id="q-exiN7DYNfEDr6AAshW-27" value="8" style="text;html=1;align=center;verticalAlign=middle;whiteSpace=wrap;rounded=0;" parent="1" vertex="1">
          <mxGeometry x="490" y="1497.5" width="60" height="30" as="geometry" />
        </mxCell>
        <mxCell id="q-exiN7DYNfEDr6AAshW-28" value="9" style="text;html=1;align=center;verticalAlign=middle;resizable=0;points=[];autosize=1;strokeColor=none;fillColor=none;" parent="1" vertex="1">
          <mxGeometry x="540" y="1600" width="30" height="30" as="geometry" />
        </mxCell>
        <mxCell id="q-exiN7DYNfEDr6AAshW-29" value="10" style="text;html=1;align=center;verticalAlign=middle;whiteSpace=wrap;rounded=0;" parent="1" vertex="1">
          <mxGeometry x="665" y="1475" width="60" height="30" as="geometry" />
        </mxCell>
        <mxCell id="q-exiN7DYNfEDr6AAshW-30" value="1" style="text;html=1;align=center;verticalAlign=middle;resizable=0;points=[];autosize=1;strokeColor=none;fillColor=none;" parent="1" vertex="1">
          <mxGeometry x="185" y="2498" width="30" height="30" as="geometry" />
        </mxCell>
        <mxCell id="q-exiN7DYNfEDr6AAshW-31" value="2" style="text;html=1;align=center;verticalAlign=middle;resizable=0;points=[];autosize=1;strokeColor=none;fillColor=none;" parent="1" vertex="1">
          <mxGeometry x="235" y="2578" width="30" height="30" as="geometry" />
        </mxCell>
        <mxCell id="q-exiN7DYNfEDr6AAshW-32" value="2" style="text;html=1;align=center;verticalAlign=middle;resizable=0;points=[];autosize=1;strokeColor=none;fillColor=none;" parent="1" vertex="1">
          <mxGeometry x="282.5" y="2640" width="30" height="30" as="geometry" />
        </mxCell>
        <mxCell id="q-exiN7DYNfEDr6AAshW-35" value="3" style="text;html=1;align=center;verticalAlign=middle;resizable=0;points=[];autosize=1;strokeColor=none;fillColor=none;" parent="1" vertex="1">
          <mxGeometry x="315" y="2438" width="30" height="30" as="geometry" />
        </mxCell>
        <mxCell id="q-exiN7DYNfEDr6AAshW-36" value="4" style="text;html=1;align=center;verticalAlign=middle;resizable=0;points=[];autosize=1;strokeColor=none;fillColor=none;" parent="1" vertex="1">
          <mxGeometry x="315" y="2498" width="30" height="30" as="geometry" />
        </mxCell>
        <mxCell id="q-exiN7DYNfEDr6AAshW-37" value="5" style="text;html=1;align=center;verticalAlign=middle;resizable=0;points=[];autosize=1;strokeColor=none;fillColor=none;" parent="1" vertex="1">
          <mxGeometry x="505" y="2508" width="30" height="30" as="geometry" />
        </mxCell>
        <mxCell id="q-exiN7DYNfEDr6AAshW-38" value="5" style="text;html=1;align=center;verticalAlign=middle;resizable=0;points=[];autosize=1;strokeColor=none;fillColor=none;" parent="1" vertex="1">
          <mxGeometry x="485" y="2618" width="30" height="30" as="geometry" />
        </mxCell>
        <mxCell id="q-exiN7DYNfEDr6AAshW-39" value="6" style="text;html=1;align=center;verticalAlign=middle;resizable=0;points=[];autosize=1;strokeColor=none;fillColor=none;" parent="1" vertex="1">
          <mxGeometry x="525" y="2558" width="30" height="30" as="geometry" />
        </mxCell>
        <mxCell id="q-exiN7DYNfEDr6AAshW-40" value="7" style="text;html=1;align=center;verticalAlign=middle;resizable=0;points=[];autosize=1;strokeColor=none;fillColor=none;" parent="1" vertex="1">
          <mxGeometry x="515" y="2678" width="30" height="30" as="geometry" />
        </mxCell>
        <mxCell id="q-exiN7DYNfEDr6AAshW-41" value="8" style="text;html=1;align=center;verticalAlign=middle;resizable=0;points=[];autosize=1;strokeColor=none;fillColor=none;" parent="1" vertex="1">
          <mxGeometry x="665" y="2598" width="30" height="30" as="geometry" />
        </mxCell>
        <mxCell id="q-exiN7DYNfEDr6AAshW-42" value="1" style="text;html=1;align=center;verticalAlign=middle;resizable=0;points=[];autosize=1;strokeColor=none;fillColor=none;" parent="1" vertex="1">
          <mxGeometry x="95" y="3548" width="30" height="30" as="geometry" />
        </mxCell>
        <mxCell id="q-exiN7DYNfEDr6AAshW-43" value="2" style="text;html=1;align=center;verticalAlign=middle;resizable=0;points=[];autosize=1;strokeColor=none;fillColor=none;" parent="1" vertex="1">
          <mxGeometry x="215" y="3668" width="30" height="30" as="geometry" />
        </mxCell>
        <mxCell id="q-exiN7DYNfEDr6AAshW-44" value="2" style="text;html=1;align=center;verticalAlign=middle;resizable=0;points=[];autosize=1;strokeColor=none;fillColor=none;" parent="1" vertex="1">
          <mxGeometry x="285" y="3648" width="30" height="30" as="geometry" />
        </mxCell>
        <mxCell id="q-exiN7DYNfEDr6AAshW-45" value="2" style="text;html=1;align=center;verticalAlign=middle;resizable=0;points=[];autosize=1;strokeColor=none;fillColor=none;" parent="1" vertex="1">
          <mxGeometry x="245" y="3608" width="30" height="30" as="geometry" />
        </mxCell>
        <mxCell id="q-exiN7DYNfEDr6AAshW-46" value="3" style="text;html=1;align=center;verticalAlign=middle;resizable=0;points=[];autosize=1;strokeColor=none;fillColor=none;" parent="1" vertex="1">
          <mxGeometry x="195" y="3578" width="30" height="30" as="geometry" />
        </mxCell>
        <mxCell id="q-exiN7DYNfEDr6AAshW-48" value="4" style="text;html=1;align=center;verticalAlign=middle;resizable=0;points=[];autosize=1;strokeColor=none;fillColor=none;" parent="1" vertex="1">
          <mxGeometry x="235" y="3400" width="30" height="30" as="geometry" />
        </mxCell>
        <mxCell id="q-exiN7DYNfEDr6AAshW-49" value="5" style="text;html=1;align=center;verticalAlign=middle;resizable=0;points=[];autosize=1;strokeColor=none;fillColor=none;" parent="1" vertex="1">
          <mxGeometry x="495" y="3398" width="30" height="30" as="geometry" />
        </mxCell>
        <mxCell id="q-exiN7DYNfEDr6AAshW-50" value="6" style="text;html=1;align=center;verticalAlign=middle;resizable=0;points=[];autosize=1;strokeColor=none;fillColor=none;" parent="1" vertex="1">
          <mxGeometry x="505" y="3548" width="30" height="30" as="geometry" />
        </mxCell>
        <mxCell id="q-exiN7DYNfEDr6AAshW-51" value="7" style="text;html=1;align=center;verticalAlign=middle;resizable=0;points=[];autosize=1;strokeColor=none;fillColor=none;" parent="1" vertex="1">
          <mxGeometry x="635" y="3478" width="30" height="30" as="geometry" />
        </mxCell>
        <mxCell id="q-exiN7DYNfEDr6AAshW-52" value="2" style="text;html=1;align=center;verticalAlign=middle;resizable=0;points=[];autosize=1;strokeColor=none;fillColor=none;" parent="1" vertex="1">
          <mxGeometry x="645" y="3598" width="30" height="30" as="geometry" />
        </mxCell>
        <mxCell id="q-exiN7DYNfEDr6AAshW-53" value="8" style="text;html=1;align=center;verticalAlign=middle;resizable=0;points=[];autosize=1;strokeColor=none;fillColor=none;" parent="1" vertex="1">
          <mxGeometry x="505" y="3718" width="30" height="30" as="geometry" />
        </mxCell>
        <mxCell id="q-exiN7DYNfEDr6AAshW-54" value="9" style="text;html=1;align=center;verticalAlign=middle;resizable=0;points=[];autosize=1;strokeColor=none;fillColor=none;" parent="1" vertex="1">
          <mxGeometry x="645" y="3748" width="30" height="30" as="geometry" />
        </mxCell>
        <mxCell id="q-exiN7DYNfEDr6AAshW-56" value="1" style="text;html=1;align=center;verticalAlign=middle;resizable=0;points=[];autosize=1;strokeColor=none;fillColor=none;" parent="1" vertex="1">
          <mxGeometry x="115" y="4658" width="30" height="30" as="geometry" />
        </mxCell>
        <mxCell id="q-exiN7DYNfEDr6AAshW-57" value="2" style="text;html=1;align=center;verticalAlign=middle;resizable=0;points=[];autosize=1;strokeColor=none;fillColor=none;" parent="1" vertex="1">
          <mxGeometry x="255" y="4728" width="30" height="30" as="geometry" />
        </mxCell>
        <mxCell id="q-exiN7DYNfEDr6AAshW-58" value="2" style="text;html=1;align=center;verticalAlign=middle;resizable=0;points=[];autosize=1;strokeColor=none;fillColor=none;" parent="1" vertex="1">
          <mxGeometry x="275" y="4778" width="30" height="30" as="geometry" />
        </mxCell>
        <mxCell id="q-exiN7DYNfEDr6AAshW-59" value="2" style="text;html=1;align=center;verticalAlign=middle;resizable=0;points=[];autosize=1;strokeColor=none;fillColor=none;" parent="1" vertex="1">
          <mxGeometry x="245" y="4818" width="30" height="30" as="geometry" />
        </mxCell>
        <mxCell id="q-exiN7DYNfEDr6AAshW-60" value="3" style="text;html=1;align=center;verticalAlign=middle;resizable=0;points=[];autosize=1;strokeColor=none;fillColor=none;" parent="1" vertex="1">
          <mxGeometry x="235" y="4678" width="30" height="30" as="geometry" />
        </mxCell>
        <mxCell id="q-exiN7DYNfEDr6AAshW-61" value="4" style="text;html=1;align=center;verticalAlign=middle;resizable=0;points=[];autosize=1;strokeColor=none;fillColor=none;" parent="1" vertex="1">
          <mxGeometry x="265" y="4538" width="30" height="30" as="geometry" />
        </mxCell>
        <mxCell id="q-exiN7DYNfEDr6AAshW-62" value="5" style="text;html=1;align=center;verticalAlign=middle;resizable=0;points=[];autosize=1;strokeColor=none;fillColor=none;" parent="1" vertex="1">
          <mxGeometry x="485" y="4538" width="30" height="30" as="geometry" />
        </mxCell>
        <mxCell id="q-exiN7DYNfEDr6AAshW-64" value="6" style="text;html=1;align=center;verticalAlign=middle;resizable=0;points=[];autosize=1;strokeColor=none;fillColor=none;" parent="1" vertex="1">
          <mxGeometry x="545" y="4648" width="30" height="30" as="geometry" />
        </mxCell>
        <mxCell id="q-exiN7DYNfEDr6AAshW-65" value="7" style="text;html=1;align=center;verticalAlign=middle;resizable=0;points=[];autosize=1;strokeColor=none;fillColor=none;" parent="1" vertex="1">
          <mxGeometry x="655" y="4608" width="30" height="30" as="geometry" />
        </mxCell>
        <mxCell id="q-exiN7DYNfEDr6AAshW-66" value="2" style="text;html=1;align=center;verticalAlign=middle;resizable=0;points=[];autosize=1;strokeColor=none;fillColor=none;" parent="1" vertex="1">
          <mxGeometry x="655" y="4728" width="30" height="30" as="geometry" />
        </mxCell>
        <mxCell id="q-exiN7DYNfEDr6AAshW-67" value="8" style="text;html=1;align=center;verticalAlign=middle;resizable=0;points=[];autosize=1;strokeColor=none;fillColor=none;" parent="1" vertex="1">
          <mxGeometry x="525" y="4848" width="30" height="30" as="geometry" />
        </mxCell>
        <mxCell id="q-exiN7DYNfEDr6AAshW-68" value="9" style="text;html=1;align=center;verticalAlign=middle;resizable=0;points=[];autosize=1;strokeColor=none;fillColor=none;" parent="1" vertex="1">
          <mxGeometry x="645" y="4838" width="30" height="30" as="geometry" />
        </mxCell>
        <mxCell id="q-exiN7DYNfEDr6AAshW-69" value="1" style="text;html=1;align=center;verticalAlign=middle;resizable=0;points=[];autosize=1;strokeColor=none;fillColor=none;" parent="1" vertex="1">
          <mxGeometry x="135" y="5748" width="30" height="30" as="geometry" />
        </mxCell>
        <mxCell id="q-exiN7DYNfEDr6AAshW-70" value="2" style="text;html=1;align=center;verticalAlign=middle;resizable=0;points=[];autosize=1;strokeColor=none;fillColor=none;" parent="1" vertex="1">
          <mxGeometry x="295" y="5798" width="30" height="30" as="geometry" />
        </mxCell>
        <mxCell id="q-exiN7DYNfEDr6AAshW-71" value="2" style="text;html=1;align=center;verticalAlign=middle;resizable=0;points=[];autosize=1;strokeColor=none;fillColor=none;" parent="1" vertex="1">
          <mxGeometry x="315" y="5858" width="30" height="30" as="geometry" />
        </mxCell>
        <mxCell id="q-exiN7DYNfEDr6AAshW-72" value="2" style="text;html=1;align=center;verticalAlign=middle;resizable=0;points=[];autosize=1;strokeColor=none;fillColor=none;" parent="1" vertex="1">
          <mxGeometry x="265" y="5908" width="30" height="30" as="geometry" />
        </mxCell>
        <mxCell id="q-exiN7DYNfEDr6AAshW-73" value="3" style="text;html=1;align=center;verticalAlign=middle;resizable=0;points=[];autosize=1;strokeColor=none;fillColor=none;" parent="1" vertex="1">
          <mxGeometry x="235" y="5738" width="30" height="30" as="geometry" />
        </mxCell>
        <mxCell id="q-exiN7DYNfEDr6AAshW-74" value="4" style="text;html=1;align=center;verticalAlign=middle;resizable=0;points=[];autosize=1;strokeColor=none;fillColor=none;" parent="1" vertex="1">
          <mxGeometry x="275" y="5608" width="30" height="30" as="geometry" />
        </mxCell>
        <mxCell id="q-exiN7DYNfEDr6AAshW-75" value="5" style="text;html=1;align=center;verticalAlign=middle;resizable=0;points=[];autosize=1;strokeColor=none;fillColor=none;" parent="1" vertex="1">
          <mxGeometry x="505" y="5598" width="30" height="30" as="geometry" />
        </mxCell>
        <mxCell id="q-exiN7DYNfEDr6AAshW-76" value="6" style="text;html=1;align=center;verticalAlign=middle;resizable=0;points=[];autosize=1;strokeColor=none;fillColor=none;" parent="1" vertex="1">
          <mxGeometry x="535" y="5748" width="30" height="30" as="geometry" />
        </mxCell>
        <mxCell id="q-exiN7DYNfEDr6AAshW-77" value="2" style="text;html=1;align=center;verticalAlign=middle;resizable=0;points=[];autosize=1;strokeColor=none;fillColor=none;" parent="1" vertex="1">
          <mxGeometry x="695" y="5798" width="30" height="30" as="geometry" />
        </mxCell>
        <mxCell id="q-exiN7DYNfEDr6AAshW-78" value="8" style="text;html=1;align=center;verticalAlign=middle;resizable=0;points=[];autosize=1;strokeColor=none;fillColor=none;" parent="1" vertex="1">
          <mxGeometry x="532.5" y="5888" width="30" height="30" as="geometry" />
        </mxCell>
        <mxCell id="q-exiN7DYNfEDr6AAshW-79" value="9" style="text;html=1;align=center;verticalAlign=middle;resizable=0;points=[];autosize=1;strokeColor=none;fillColor=none;" parent="1" vertex="1">
          <mxGeometry x="665" y="5918" width="30" height="30" as="geometry" />
        </mxCell>
        <mxCell id="q-exiN7DYNfEDr6AAshW-80" value="7" style="text;html=1;align=center;verticalAlign=middle;resizable=0;points=[];autosize=1;strokeColor=none;fillColor=none;" parent="1" vertex="1">
          <mxGeometry x="675" y="5668" width="30" height="30" as="geometry" />
        </mxCell>
        <mxCell id="q-exiN7DYNfEDr6AAshW-81" value="1" style="text;html=1;align=center;verticalAlign=middle;resizable=0;points=[];autosize=1;strokeColor=none;fillColor=none;" parent="1" vertex="1">
          <mxGeometry x="135" y="6918" width="30" height="30" as="geometry" />
        </mxCell>
        <mxCell id="q-exiN7DYNfEDr6AAshW-82" value="3" style="text;html=1;align=center;verticalAlign=middle;resizable=0;points=[];autosize=1;strokeColor=none;fillColor=none;" parent="1" vertex="1">
          <mxGeometry x="245" y="6928" width="30" height="30" as="geometry" />
        </mxCell>
        <mxCell id="q-exiN7DYNfEDr6AAshW-83" value="2" style="text;html=1;align=center;verticalAlign=middle;resizable=0;points=[];autosize=1;strokeColor=none;fillColor=none;" parent="1" vertex="1">
          <mxGeometry x="285" y="6988" width="30" height="30" as="geometry" />
        </mxCell>
        <mxCell id="q-exiN7DYNfEDr6AAshW-84" value="2" style="text;html=1;align=center;verticalAlign=middle;resizable=0;points=[];autosize=1;strokeColor=none;fillColor=none;" parent="1" vertex="1">
          <mxGeometry x="285" y="7058" width="30" height="30" as="geometry" />
        </mxCell>
        <mxCell id="q-exiN7DYNfEDr6AAshW-85" value="4" style="text;html=1;align=center;verticalAlign=middle;resizable=0;points=[];autosize=1;strokeColor=none;fillColor=none;" parent="1" vertex="1">
          <mxGeometry x="255" y="6718" width="30" height="30" as="geometry" />
        </mxCell>
        <mxCell id="q-exiN7DYNfEDr6AAshW-86" value="5" style="text;html=1;align=center;verticalAlign=middle;resizable=0;points=[];autosize=1;strokeColor=none;fillColor=none;" parent="1" vertex="1">
          <mxGeometry x="517.5" y="6710" width="30" height="30" as="geometry" />
        </mxCell>
        <mxCell id="q-exiN7DYNfEDr6AAshW-87" value="6" style="text;html=1;align=center;verticalAlign=middle;resizable=0;points=[];autosize=1;strokeColor=none;fillColor=none;" parent="1" vertex="1">
          <mxGeometry x="495" y="6908" width="30" height="30" as="geometry" />
        </mxCell>
        <mxCell id="q-exiN7DYNfEDr6AAshW-88" value="7" style="text;html=1;align=center;verticalAlign=middle;resizable=0;points=[];autosize=1;strokeColor=none;fillColor=none;" parent="1" vertex="1">
          <mxGeometry x="665" y="6788" width="30" height="30" as="geometry" />
        </mxCell>
        <mxCell id="q-exiN7DYNfEDr6AAshW-89" value="8" style="text;html=1;align=center;verticalAlign=middle;resizable=0;points=[];autosize=1;strokeColor=none;fillColor=none;" parent="1" vertex="1">
          <mxGeometry x="535" y="7028" width="30" height="30" as="geometry" />
        </mxCell>
      </root>
    </mxGraphModel>
  </diagram>
</mxfile>
